<svg width="491" height="687" viewBox="0 0 491 687" fill="none" xmlns="http://www.w3.org/2000/svg"
    data-svg-name="{{ svgName }}">
    <!-- {% include "../watercolorFilter.njk" %} -->
    <g id="base">
        <path id="Vector" d="M413.902 165.302C413.793 164.988 413.838 165.11 413.902 165.302V165.302Z" fill="#333333" />
        <path id="Vector_2"
            d="M477.443 215.854C477.446 215.809 477.446 215.764 477.443 215.72C477.423 215.578 477.355 215.448 477.252 215.349C477.354 214.224 477.398 213.093 477.392 211.968C477.374 209.736 477.177 207.509 476.804 205.309C476.495 203.662 476.011 202.053 475.361 200.509C475.527 199.947 475.622 199.576 475.642 199.455C475.782 198.477 473.086 193.575 473.086 193.575C480.395 183.944 475.891 171.424 473.68 166.599C478.791 148.768 471.968 138.102 471.968 138.102L472.179 145.937C471.596 144.118 470.957 142.318 470.263 140.537L470.588 140.626C448.637 91.0387 421.652 71.9171 405.898 52.1691C390.143 32.4211 332.985 16.105 332.985 16.105C191.101 -28.7593 103.667 37.323 101.636 38.8823H101.597C99.6807 40.0966 97.828 41.394 96.0264 42.7169C95.9965 42.6583 95.9553 42.6061 95.9051 42.5635C95.81 42.4816 95.6888 42.4366 95.5633 42.4366C95.4379 42.4366 95.3165 42.4816 95.2214 42.5635C94.5375 43.22 93.8074 43.8266 93.0366 44.3785C92.6213 44.7236 92.2188 45.0815 91.8291 45.4586C91.393 45.8398 91.001 46.2685 90.6601 46.7368C90.6549 46.7642 90.6549 46.7924 90.6601 46.8199C73.0468 58.9563 62.6781 78.7682 53.0441 97.2635C52.8698 97.5862 52.8242 97.963 52.9164 98.3181C52.1114 100.069 51.3385 101.846 50.6038 103.635C50.3329 103.73 50.0858 103.883 49.8796 104.083C49.6734 104.282 49.5128 104.524 49.409 104.792C47.7736 108.575 46.2914 112.423 44.8795 116.296C44.7962 116.489 44.7637 116.7 44.785 116.909C44.8062 117.118 44.8806 117.319 45.001 117.491C44.0273 119.54 43.259 121.681 42.7074 123.882C42.4636 124.128 42.3125 124.451 42.2794 124.796C42.2794 124.911 42.2794 125.019 42.2475 125.128C42.0292 125.393 41.8975 125.719 41.8705 126.061C41.813 126.598 41.7747 127.141 41.7364 127.678C41.28 128.768 40.8875 129.884 40.5608 131.02C40.1967 132.267 39.7368 133.507 40.0179 134.753C39.9348 135.066 39.8453 135.392 39.7622 135.673C37.8073 142.966 36.3264 150.378 35.3286 157.862C35.2862 157.965 35.2541 158.073 35.2328 158.182C35.0476 159.115 34.8942 160.048 34.7537 160.994C34.6694 161.173 34.6093 161.362 34.5748 161.556C33.2971 169.225 33.1821 177.01 33.1054 184.768C32.9344 185.117 32.8407 185.498 32.8307 185.887C32.7285 188.769 32.7732 191.638 32.9201 194.508C32.7461 194.875 32.6567 195.277 32.6582 195.684C32.7303 200.942 33.3209 206.18 34.4215 211.323C34.4581 212.329 34.5541 213.332 34.7089 214.326C34.4141 214.719 34.2712 215.204 34.3065 215.694C34.709 220.724 35.7375 225.683 36.6831 230.649C36.8236 231.556 36.9769 232.464 37.1302 233.371C37.3474 235.523 37.588 237.675 37.8521 239.826C37.6987 240.433 37.5518 241.04 37.4305 241.641C36.8357 244.7 36.6211 247.822 36.7916 250.934C36.6246 255.422 37.0174 259.913 37.9608 264.303C37.5647 266.01 38.0694 267.735 38.5996 269.365C39.1299 270.995 39.724 272.676 40.3181 274.324C40.7206 275.909 41.1614 277.482 41.5958 279.06C41.6278 279.29 41.6724 279.527 41.7108 279.763C41.6724 281.31 41.6469 282.856 41.5958 284.403C41.5895 284.509 41.6074 284.616 41.6484 284.715C41.6893 284.813 41.7521 284.901 41.8321 284.972C41.8321 285.336 41.7747 285.7 41.7364 286.065C41.7259 286.185 41.7528 286.305 41.8131 286.41C41.6797 288.505 41.7353 290.607 41.9792 292.692C41.881 292.78 41.8052 292.891 41.7585 293.014C41.7118 293.137 41.6955 293.27 41.7108 293.401C42.0673 296.936 42.6672 300.443 43.506 303.895C43.5699 304.311 43.6338 304.72 43.7297 305.122C43.8255 305.525 43.9787 306.107 44.1257 306.586C44.4834 308.145 44.8477 309.692 45.1735 311.245C45.1926 311.367 45.2394 311.482 45.3103 311.583C45.3812 311.684 45.4742 311.767 45.5823 311.826C46.4447 315.878 47.6139 320.211 49.901 323.567C49.8523 323.706 49.8391 323.855 49.8626 324.001C49.8546 324.088 49.8656 324.175 49.8946 324.257L50.3353 325.535C50.3865 325.714 50.5028 325.866 50.6612 325.963C50.955 326.647 51.249 327.331 51.5429 328.027C51.5037 328.212 51.5214 328.403 51.5939 328.577C51.9133 329.433 52.2329 330.296 52.5203 331.133C52.5842 331.383 52.6416 331.632 52.6863 331.888C52.7136 332.081 52.8061 332.259 52.9483 332.392C54.571 337.262 55.8998 342.273 57.0306 347.245C57.0556 347.366 57.1077 347.481 57.1829 347.579C57.2582 347.678 57.3546 347.758 57.4651 347.814C57.4616 347.829 57.4616 347.844 57.4651 347.859C57.5865 348.664 57.7333 349.463 57.8803 350.262C58.7236 354.735 60.2184 358.972 60.3526 363.599C60.3526 363.925 60.3909 364.315 60.672 364.494C60.831 364.567 61.0116 364.578 61.1781 364.525C61.3447 364.471 61.4854 364.358 61.5729 364.207C61.7359 363.897 61.8213 363.553 61.822 363.203C61.9838 361.21 62.3369 359.237 62.8762 357.311C63.6625 358.832 64.3434 360.406 64.9141 362.021C65.1569 362.711 65.3102 363.427 65.553 364.104C65.751 364.616 66.2684 365.069 66.4345 365.472C66.4792 365.568 66.5113 365.664 66.556 365.76C66.5996 365.86 66.6649 365.95 66.7475 366.022C66.9711 366.661 67.1884 367.351 67.3864 368.028C67.9039 369.831 68.3896 371.652 68.8112 373.48C69.0536 374.928 69.4343 376.349 69.9482 377.723C69.7986 377.824 69.684 377.968 69.6199 378.136C69.5558 378.304 69.5456 378.488 69.5906 378.663C69.712 379.117 69.8396 379.564 69.961 380.018C69.8848 380.163 69.8516 380.327 69.8652 380.491C69.8652 380.772 69.9227 381.053 69.9674 381.334C70.2932 383.974 70.6062 386.613 70.9065 389.253C71.0023 390.122 71.1109 390.985 71.2131 391.847C71.106 391.94 71.0284 392.062 70.9896 392.199C70.8656 392.851 70.9622 393.525 71.2643 394.116C71.2963 394.206 71.3219 394.295 71.3538 394.385C71.3858 395.477 71.4623 396.564 71.5773 397.663C71.5941 397.82 71.6438 397.972 71.723 398.108C71.8023 398.245 71.9093 398.363 72.0373 398.456C72.0373 398.545 72.0373 398.628 72.0373 398.718C72.082 398.948 72.1331 399.184 72.1778 399.414C71.9709 401.44 72.2901 403.485 73.1043 405.351C73.0544 405.582 73.0907 405.823 73.2065 406.029C73.3215 406.246 73.4237 406.47 73.5387 406.668C73.532 406.721 73.532 406.775 73.5387 406.828C73.5387 408.106 74.3117 409.333 74.8164 410.464C75.3198 411.44 75.5971 412.517 75.6278 413.615C75.6278 414.893 75.4106 416.133 75.5064 417.411C75.5064 417.654 75.551 417.897 75.5446 418.14V418.779C75.5676 418.978 75.5676 419.18 75.5446 419.38H75.583C75.6405 425.131 75.9344 431.037 77.7168 436.194C77.7882 436.418 77.8869 436.633 78.0107 436.833C78.0138 436.848 78.0138 436.863 78.0107 436.878C78.3748 438.341 78.7326 439.811 79.0967 441.275L79.6334 443.422C79.7508 444.006 79.9175 444.579 80.1317 445.135C80.1317 445.135 80.1317 445.135 80.1317 445.18C80.0593 445.232 80.0046 445.306 79.975 445.39C79.9453 445.475 79.942 445.566 79.9656 445.653C80.1317 446.202 80.3169 446.746 80.4958 447.289C80.666 447.933 80.7898 448.589 80.8663 449.251C80.8663 450.126 80.8664 450.996 80.9367 451.865C80.975 452.446 81.8949 452.389 81.946 451.826C82.0141 450.938 81.9928 450.045 81.8822 449.161C81.9131 449.137 81.9379 449.106 81.9546 449.071C81.9712 449.035 81.9792 448.996 81.978 448.957C81.9882 448.926 81.9882 448.892 81.978 448.861C81.978 447.832 81.978 446.803 82.0355 445.78C82.0831 445.701 82.1196 445.615 82.1441 445.525V445.474C82.2077 445.339 82.2446 445.194 82.2526 445.046C82.2561 445.031 82.2561 445.016 82.2526 445.001C82.5082 444.01 82.7702 443.013 83.0066 442.016C83.0641 441.761 83.1278 441.505 83.1917 441.249C83.8493 441.873 84.6609 442.311 85.5433 442.517C86.4257 442.724 87.3472 442.692 88.2132 442.425C89.1641 442.15 90.0624 441.718 90.8708 441.147L90.9795 441.07C90.9795 441.147 90.9795 441.224 90.9795 441.3C90.9646 441.475 91.0071 441.65 91.1008 441.799C91.5714 445.042 91.8189 448.313 91.8419 451.59C91.8738 453.226 91.8866 454.862 91.893 456.498C91.9373 457.183 91.8879 457.871 91.7461 458.543C91.505 459.111 91.3417 459.708 91.2606 460.32C91.266 460.501 91.3241 460.677 91.4278 460.825C91.5314 460.974 91.676 461.089 91.8441 461.157C92.0121 461.225 92.1963 461.242 92.374 461.207C92.5518 461.172 92.7154 461.086 92.8449 460.959C94.0408 459.829 95.2947 458.763 96.6015 457.764C96.9145 457.527 97.2786 457.323 97.6236 457.124C97.3641 459.735 97.8773 462.364 99.0994 464.685C99.1713 465.004 99.2718 465.317 99.3996 465.618C100.728 470.398 106.21 472.258 111.046 472.648C113.697 472.967 116.378 472.949 119.025 472.597C120.271 472.406 121.473 471.997 122.577 471.389C123.124 471.071 123.632 470.692 124.091 470.258C124.864 469.51 125.133 468.686 126.379 468.756C127.711 468.887 128.946 469.511 129.841 470.507L129.892 470.545C130.175 470.921 130.425 471.321 130.64 471.74C130.775 472.061 130.942 472.367 131.138 472.654C131.207 472.743 131.299 472.81 131.404 472.848C131.509 472.887 131.623 472.896 131.733 472.873C131.842 472.85 131.943 472.798 132.024 472.721C132.106 472.644 132.164 472.545 132.192 472.437C132.282 472.079 132 471.664 131.847 471.357C131.83 471.319 131.808 471.282 131.783 471.248C131.783 471.076 131.739 470.903 131.713 470.731C131.649 470.29 131.592 469.855 131.541 469.414C131.532 469.363 131.517 469.314 131.496 469.267C131.496 469.082 131.496 468.89 131.496 468.698C131.496 468.34 131.457 467.983 131.432 467.631C131.381 466.915 131.323 466.2 131.253 465.484C131.247 465.402 131.22 465.322 131.177 465.252C131.134 465.182 131.074 465.124 131.004 465.081C131.004 464.947 130.474 464.787 130.474 464.787V464.672C130.7 463.304 130.803 461.918 130.78 460.531C130.771 460.428 130.728 460.332 130.659 460.256C130.59 460.179 130.498 460.128 130.397 460.109C130.397 459.402 130.384 458.692 130.359 457.981C130.351 457.887 130.321 457.797 130.269 457.719C130.269 457.642 130.269 457.565 130.269 457.489C130.269 457.412 130.269 457.252 130.314 457.137C130.391 457.094 130.456 457.031 130.501 456.955C130.546 456.878 130.569 456.791 130.569 456.703C130.569 456.159 130.525 455.629 130.461 455.086C130.461 455.047 130.461 455.009 130.461 454.964C130.452 454.916 130.433 454.87 130.406 454.829C130.378 454.789 130.343 454.754 130.301 454.728C130.359 453.117 130.301 451.494 130.269 449.877C130.268 449.82 130.254 449.763 130.231 449.711C130.207 449.659 130.173 449.612 130.13 449.573C130.088 449.534 130.038 449.505 129.984 449.485C129.93 449.466 129.873 449.458 129.816 449.462C129.816 449.155 129.816 448.823 129.816 448.548C129.854 447.882 129.854 447.214 129.816 446.547C129.953 445.091 129.953 443.626 129.816 442.17C129.816 441.531 129.854 440.834 129.879 440.169C129.884 440.11 129.875 440.051 129.854 439.996C129.833 439.941 129.801 439.891 129.758 439.85C130.074 437.95 130.196 436.023 130.122 434.098C130.128 433.977 130.085 433.859 130.003 433.769C129.922 433.679 129.809 433.625 129.688 433.619C129.72 433.344 129.765 433.069 129.796 432.794C129.886 432.053 129.963 431.305 130.052 430.557C130.203 429.928 130.216 429.274 130.09 428.64C130.074 428.594 130.045 428.554 130.007 428.524C129.968 428.495 129.922 428.477 129.873 428.474C129.911 428.161 129.956 427.835 129.994 427.528C130.09 426.889 130.173 426.25 130.212 425.611C130.223 425.52 130.2 425.429 130.146 425.356C130.093 425.282 130.013 425.232 129.924 425.214C129.834 425.2 129.742 425.221 129.668 425.273C129.594 425.326 129.544 425.406 129.528 425.496C129.471 425.515 129.419 425.547 129.376 425.589C129.333 425.631 129.3 425.682 129.279 425.739C129.183 425.751 129.094 425.794 129.026 425.862C128.958 425.931 128.914 426.02 128.902 426.116C128.812 426.194 128.705 426.251 128.589 426.282V426.333C128.736 426.333 128.666 426.333 128.589 426.333C128.505 426.362 128.424 426.399 128.346 426.442C128.127 426.493 127.931 426.617 127.79 426.793L127.656 426.882C127.42 427.042 127.177 427.189 126.928 427.33C126.826 427.387 126.717 427.426 126.615 427.477C126.466 427.436 126.31 427.427 126.157 427.45C126.004 427.473 125.857 427.528 125.727 427.611C125.088 428.007 124.411 428.378 123.734 428.717C123.645 428.704 123.554 428.704 123.465 428.717C121.133 429.113 118.808 429.535 116.476 429.912C113.684 429.707 110.931 429.554 108.171 429.273C107.82 428.934 107.181 428.928 106.721 428.819C106.261 428.71 105.807 428.582 105.354 428.448C104.715 428.257 104.114 428.039 103.501 427.809C103.392 427.752 103.277 427.707 103.175 427.649L102.76 427.368C102.774 427.287 102.768 427.204 102.743 427.126C102.717 427.048 102.673 426.978 102.613 426.921C101.797 426.251 100.944 425.628 100.058 425.055C99.3307 424.593 98.6652 424.041 98.0771 423.412C98.0121 423.325 97.916 423.267 97.8088 423.249C97.7017 423.231 97.5919 423.255 97.5022 423.316C97.4664 423.339 97.4358 423.37 97.4127 423.406C97.0933 422.946 96.7738 422.492 96.4608 422.025C95.8729 420.931 95.2045 419.882 94.4612 418.887C94.4242 418.835 94.3763 418.791 94.3207 418.76C93.848 417.59 93.3624 416.421 92.8833 415.251C92.8833 415.187 92.8385 415.123 92.8193 415.059C92.6277 414.375 92.4232 413.704 92.1805 413.033C92.161 412.97 92.1254 412.914 92.0772 412.869C92.029 412.824 91.9699 412.793 91.9058 412.778C91.9058 412.675 91.9058 412.567 91.8611 412.465C91.8099 412.222 91.7461 411.992 91.6949 411.755C91.735 411.444 91.7522 411.13 91.7461 410.816C91.7251 409.875 91.5658 408.943 91.2734 408.048L91.1392 407.256C91.0681 406.83 90.948 406.414 90.7814 406.016C90.7376 405.664 90.6584 405.317 90.545 404.981C90.316 404.248 90.003 403.545 89.6123 402.885C89.2417 402.245 88.8073 401.683 88.3793 401.095C88.0279 400.213 87.6829 399.331 87.3507 398.443C86.5457 396.289 85.7856 394.11 85.0893 391.918C85.0725 391.861 85.0439 391.808 85.0053 391.763C84.9668 391.718 84.9192 391.681 84.8656 391.656C84.6378 390.478 84.3327 389.317 83.9521 388.179C83.548 387.001 83.059 385.854 82.4891 384.747C82.3996 384.568 82.3102 384.396 82.208 384.223C82.1122 383.935 82.0164 383.648 81.9078 383.36C81.749 382.96 81.5676 382.57 81.3647 382.191C81.1959 381.788 80.977 381.408 80.713 381.059C80.6315 380.965 80.5216 380.9 80.4 380.874C80.2083 380.376 80.0167 379.877 79.8187 379.391C78.5467 376.13 76.8148 373.068 74.6759 370.297C74.2862 369.396 73.8517 368.508 73.3981 367.645C72.5463 365.97 71.6199 364.337 70.6191 362.743C70.1846 361.925 69.7247 361.12 69.2648 360.321C68.7728 358.889 68.2809 357.458 67.8145 356.02C66.6774 352.537 65.5594 349.054 64.4861 345.558C64.4861 345.558 64.4861 345.526 64.4861 345.507C64.4861 345.488 64.4477 345.289 64.4286 345.174C64.4487 344.962 64.4487 344.748 64.4286 344.535C64.2497 342.912 64.0964 341.289 63.9558 339.659C64.0069 337.243 63.9047 334.808 63.8153 332.386C63.9913 332.142 64.1073 331.859 64.1539 331.562C64.1858 331.332 64.2177 331.101 64.2561 330.865C64.2533 330.848 64.2533 330.831 64.2561 330.814C64.4158 329.67 64.5691 328.52 64.6904 327.369C64.9077 326.091 65.1633 324.762 65.3932 323.445L65.5018 323.381C65.6079 323.394 65.7151 323.394 65.8212 323.381C66.1726 323.381 66.5177 323.292 66.8627 323.228L66.9648 323.324C67.7889 326.155 69.9547 328.532 72.4015 330.354C72.4732 330.753 72.6386 331.129 72.8841 331.451C73.1295 331.773 73.448 332.032 73.8133 332.207C74.4722 332.564 75.0894 332.992 75.6533 333.485C75.7393 333.844 75.9127 334.175 76.1581 334.45C77.7534 336.115 79.6616 337.449 81.7735 338.374C82.0644 338.726 82.4257 339.014 82.8341 339.218C85.0292 340.35 87.3549 341.209 89.7592 341.774C90.0405 341.978 90.3536 342.133 90.6857 342.235C94.2901 343.328 98.0506 343.816 101.814 343.679C102.47 343.939 103.151 344.13 103.846 344.248C105.392 344.484 106.695 343.986 108.018 343.455H108.177L108.861 343.334H109.097C109.156 343.323 109.213 343.301 109.264 343.27L109.723 343.2C110.362 343.2 111.001 343.2 111.64 343.142C111.693 343.224 111.772 343.284 111.864 343.315H111.902C113.018 343.172 114.151 343.354 115.167 343.839C115.683 344.095 116.144 344.451 116.521 344.887C116.802 345.213 117.038 345.839 117.562 345.481C117.741 345.762 117.901 346.055 118.041 346.357C118.45 347.219 118.629 348.191 119.076 349.028C119.106 349.09 119.151 349.143 119.207 349.183C119.263 349.224 119.328 349.249 119.396 349.258C119.779 350.645 120.182 352.013 120.533 353.342C120.564 353.509 120.607 353.673 120.661 353.834V353.885C120.767 354.161 120.921 354.416 121.114 354.639C121.04 354.699 120.986 354.78 120.962 354.873C120.938 354.965 120.944 355.062 120.98 355.151C121.14 355.566 121.287 355.975 121.421 356.39C121.519 357.298 121.681 358.197 121.907 359.081C122.129 359.914 122.226 360.776 122.194 361.637C122.13 361.944 122.066 362.277 122.015 362.551C121.994 362.68 122.022 362.812 122.093 362.922C122.163 363.032 122.272 363.112 122.397 363.146C122.523 363.181 122.657 363.168 122.774 363.111C122.891 363.053 122.982 362.954 123.031 362.833C123.136 362.498 123.204 362.153 123.235 361.804C123.574 360.231 124.136 358.646 125.401 357.624C126.017 358.563 126.45 359.611 126.679 360.711C126.698 360.818 126.75 360.916 126.826 360.994C126.902 361.071 127 361.124 127.107 361.145C127.882 364.115 128.827 367.039 129.937 369.901C129.927 369.945 129.927 369.991 129.937 370.035C129.952 370.153 129.973 370.271 130.001 370.387C130.031 370.495 130.068 370.602 130.109 370.706C130.162 370.851 130.224 370.992 130.295 371.128C130.319 371.155 130.344 371.181 130.371 371.205C130.628 373.681 131.055 376.137 131.649 378.554C131.748 378.957 131.931 379.333 132.186 379.66C132.338 380.292 132.457 380.932 132.543 381.577C132.55 381.653 132.584 381.723 132.639 381.775C132.785 382.757 132.826 383.751 132.761 384.741C132.754 384.864 132.785 384.987 132.85 385.092C132.653 385.699 132.535 386.328 132.499 386.965C132.191 388.184 131.95 389.419 131.777 390.665C131.557 391.135 131.477 391.659 131.547 392.173C131.559 392.259 131.589 392.341 131.635 392.413C131.681 392.486 131.743 392.548 131.815 392.595C131.764 392.723 131.726 392.832 131.713 392.87C131.617 393.228 131.54 393.592 131.47 393.956C131.279 394.649 131.279 395.38 131.47 396.072C131.594 396.335 131.779 396.564 132.009 396.742C132.238 396.92 132.507 397.04 132.793 397.094L132.831 397.139C134.694 399.026 136.928 400.506 139.392 401.485C139.585 401.553 139.788 401.59 139.993 401.594C140.17 401.675 140.363 401.713 140.558 401.704C140.752 401.695 140.942 401.64 141.111 401.542L141.519 401.312L141.807 402.284C141.876 402.506 142.006 402.705 142.18 402.86C142.355 403.014 142.568 403.118 142.797 403.159C143.168 403.198 143.542 403.136 143.88 402.978C144.217 402.821 144.506 402.574 144.714 402.265L144.79 402.367C145.144 402.807 145.637 403.115 146.187 403.241C146.738 403.366 147.316 403.301 147.825 403.057L148.08 402.929C148.469 403.288 148.922 403.57 149.416 403.76C150.31 404.099 151.518 404.169 152.252 403.441C152.4 403.29 152.5 403.099 152.54 402.891C152.945 402.855 153.332 402.707 153.658 402.463C153.805 402.346 153.928 402.201 154.019 402.036C154.111 401.872 154.169 401.691 154.19 401.504C154.211 401.317 154.196 401.127 154.144 400.947C154.092 400.766 154.005 400.597 153.888 400.45L153.747 400.315C153.805 400.02 153.805 399.716 153.747 399.421C153.882 399.154 153.946 398.857 153.932 398.558C153.862 396.692 153.613 394.858 153.409 392.998L152.834 387.783C152.801 387.463 152.682 387.158 152.489 386.901C152.472 384.398 152.161 381.905 151.562 379.475C151.436 378.961 151.22 378.474 150.923 378.037C150.92 378.005 150.92 377.973 150.923 377.941C151.094 377.426 151.176 376.885 151.166 376.343C151.069 372.346 150.691 368.361 150.035 364.417C149.846 361.063 149.387 357.729 148.662 354.448C148.665 354.435 148.665 354.422 148.662 354.409C148.594 352.875 148.511 351.342 148.413 349.808C148.592 343.756 148.304 337.665 148.208 331.632C148.106 325.241 148.438 318.396 147.621 311.961C147.799 311.829 147.941 311.655 148.035 311.454C148.129 311.253 148.171 311.032 148.157 310.81C148.11 308.177 148.125 305.542 148.202 302.905C148.255 302.781 148.288 302.649 148.298 302.515C148.298 302.17 148.342 301.825 148.362 301.486C148.513 301.306 148.601 301.082 148.611 300.847L148.726 299.255C148.856 299.058 148.934 298.83 148.951 298.594C148.969 298.359 148.927 298.122 148.828 297.907C148.828 297.683 148.828 297.466 148.873 297.268C149.004 297.115 149.092 296.93 149.128 296.731C149.231 296.549 149.292 296.346 149.307 296.137C149.352 295.498 149.409 294.814 149.46 294.156C149.568 293.787 149.652 293.411 149.71 293.031C149.812 292.309 149.85 291.574 149.92 290.845C149.991 290.116 150.086 289.279 150.17 288.493C150.316 287.579 150.457 286.672 150.604 285.758C150.645 285.685 150.669 285.605 150.674 285.521C150.725 285.138 150.789 284.761 150.84 284.377C151.228 282.166 151.641 279.957 152.08 277.75C153.511 270.509 156.897 264.329 159.363 257.44C161.209 252.298 162.659 247.023 163.7 241.66C163.764 241.315 163.867 240.446 164.001 239.308C167.304 231.16 170.517 222.98 173.52 214.716C173.846 216.876 174.082 219.043 174.28 221.222C174.292 221.646 174.472 222.048 174.779 222.339C174.932 222.483 175.111 222.596 175.307 222.671C175.503 222.746 175.712 222.781 175.922 222.775C176.132 222.769 176.338 222.722 176.53 222.636C176.721 222.551 176.894 222.428 177.038 222.276C177.182 222.123 177.295 221.944 177.37 221.747C177.445 221.551 177.48 221.342 177.474 221.133C177.499 219.695 177.45 218.258 177.327 216.825C177.966 218.199 178.765 219.516 179.48 220.851C179.972 221.778 180.439 222.686 180.828 223.612C181.212 225.945 181.608 228.278 181.959 230.642C181.967 230.774 182.008 230.902 182.079 231.013C182.149 231.125 182.246 231.217 182.362 231.281L182.515 233.026C182.515 233.827 182.515 234.626 182.515 235.423L182.477 235.678C181.94 237.8 181.41 239.922 180.79 242.025C180.71 242.086 180.644 242.164 180.598 242.253C180.552 242.343 180.525 242.442 180.522 242.542C180.524 242.69 180.573 242.833 180.662 242.951C180.603 243.139 180.614 243.341 180.693 243.521C180.772 243.7 180.913 243.845 181.09 243.929C181.729 244.172 182.368 244.447 183.007 244.709L183.46 244.901H183.499L183.824 245.054C184.157 245.216 184.495 245.363 184.84 245.495C185.038 245.558 185.252 245.552 185.446 245.478C185.64 245.403 185.802 245.265 185.907 245.086C186.097 245.037 186.264 244.924 186.38 244.766C187.016 243.769 187.373 242.619 187.415 241.437C187.549 241.104 187.677 240.798 187.792 240.427C187.941 240.315 188.055 240.162 188.118 239.986C189.087 237.365 189.562 234.587 189.517 231.793C189.517 231.646 189.517 231.499 189.561 231.352C189.613 230.885 189.67 230.425 189.734 229.965C189.734 229.728 189.791 229.492 189.817 229.262C189.836 229.024 189.836 228.784 189.817 228.546C189.821 228.448 189.795 228.35 189.743 228.267C189.69 228.184 189.614 228.118 189.523 228.08C189.614 227.911 189.658 227.721 189.651 227.53C189.651 227.227 189.632 226.927 189.593 226.629C189.593 226.284 189.645 225.945 189.664 225.6C189.676 225.463 189.66 225.326 189.616 225.196C189.572 225.066 189.501 224.947 189.408 224.846C189.312 224.098 189.204 223.357 189.089 222.615C189.089 222.456 189.038 222.302 189.018 222.142C188.999 221.983 188.986 221.65 188.967 221.407C188.823 219.801 188.582 218.205 188.245 216.627C188.217 216.503 188.162 216.386 188.083 216.286C188.005 216.185 187.906 216.103 187.792 216.045C187.511 214.556 187.153 213.067 186.744 211.572C186.661 211.297 186.522 211.042 186.335 210.824C186.176 209.968 185.997 209.118 185.824 208.268C185.79 208.132 185.723 208.006 185.63 207.901C185.536 207.797 185.419 207.716 185.287 207.667C185.038 206.894 184.789 206.127 184.521 205.36C184.49 205.267 184.44 205.183 184.374 205.111C184.308 205.039 184.227 204.983 184.138 204.944C183.946 204.216 183.748 203.494 183.55 202.772C183.535 202.749 183.518 202.727 183.499 202.708C183.368 202.565 183.278 202.391 183.237 202.203C183.189 202.035 183.15 201.864 183.122 201.691C183.032 201.538 182.949 201.385 182.873 201.218C182.766 201.044 182.672 200.863 182.592 200.675C182.385 200.502 182.149 200.368 181.895 200.279C181.544 199.333 181.186 198.362 180.803 197.454C180.714 197.229 180.579 197.024 180.407 196.854C180.189 196.368 179.972 195.882 179.768 195.396C179.663 195.155 179.509 194.938 179.317 194.759C179.125 194.58 178.898 194.442 178.65 194.355C178.145 193.255 177.608 192.182 177.014 191.159C177.014 191.159 177.014 191.159 177.014 191.127C176.938 190.808 176.761 190.521 176.51 190.309C176.292 189.97 176.062 189.67 175.832 189.325L175.488 188.635C177.781 188.328 179.864 186.2 178.484 183.701L178.343 183.452C178.493 182.557 178.286 181.64 177.768 180.895C176.248 178.595 174.631 176.349 172.919 174.159C172.517 173.52 171.699 172.082 171.699 172.082C171.699 172.082 173.858 173.642 175.143 174.517C180.451 180.269 200.543 203.187 199.809 220.334C199.809 220.334 206.427 233.314 205.693 238.145C205.693 238.145 210.803 220.788 197.617 194.291C199.385 196.409 200.995 198.654 202.434 201.008C212.292 217.305 216.164 234.598 216.662 240.088L215.039 210.984C215.039 210.984 203.578 180.474 178.139 159.607C178.536 159.513 178.919 159.365 179.276 159.166C183.349 156.947 187.576 155.025 191.925 153.414C195.056 155.332 211.73 166.835 223.964 198.49C223.964 198.49 236.99 227.594 237.936 227.594C238.881 227.594 228.794 172.632 198.557 151.107C203.242 149.526 208.016 148.22 212.854 147.196C213.695 147.02 214.551 146.921 215.41 146.902C219.173 146.87 222.201 150.097 224.961 152.258L228.966 155.376C231.522 157.345 233.598 159.716 236.057 161.767C237.566 162.924 238.942 164.244 240.159 165.704C240.234 166.082 240.398 166.437 240.638 166.739C240.74 166.893 240.849 167.04 240.951 167.187C241.232 167.583 241.526 167.96 241.826 168.337C242.357 168.976 242.938 169.615 243.487 170.254C243.534 170.308 243.585 170.357 243.641 170.401C243.807 170.708 243.967 171.041 244.145 171.322C244.203 171.418 244.273 171.513 244.337 171.609C244.369 171.914 244.442 172.213 244.554 172.498C244.642 172.695 244.749 172.884 244.874 173.06L244.995 173.226L245.053 173.303C245.188 173.46 245.353 173.588 245.538 173.68L245.838 173.891H245.883C246.944 175.808 247.991 177.725 248.988 179.643C249.199 180.135 249.416 180.621 249.627 181.119C250.476 183.151 251.211 185.222 252.054 187.254C252.158 187.531 252.36 187.759 252.623 187.893C253.013 188.839 253.422 189.766 253.76 190.654C254.782 193.345 255.357 196.202 256.686 198.758C256.733 199.25 256.832 199.737 256.98 200.209C257.008 200.314 257.058 200.412 257.127 200.496C257.478 202.91 257.992 205.297 258.667 207.641C258.686 207.694 258.71 207.746 258.737 207.795C258.558 210.351 259.964 212.837 260.545 215.317C261.256 218.17 261.641 221.094 261.695 224.034C261.695 224.993 263.19 224.974 263.343 224.072C263.863 221.073 264.056 218.026 263.918 214.985C263.913 214.793 263.848 214.608 263.733 214.454C263.733 213.917 263.733 213.374 263.733 212.831C263.694 211.399 263.605 209.961 263.433 208.536C263.412 208.368 263.341 208.209 263.228 208.082C263.151 207.245 263.081 206.414 263.005 205.584C263.005 204.944 263.005 204.344 262.973 203.724C262.969 203.55 262.901 203.383 262.781 203.257C262.717 201.659 262.632 200.062 262.525 198.464C262.521 198.31 262.477 198.16 262.399 198.027C262.321 197.894 262.21 197.783 262.078 197.703C262.078 197.633 262.078 197.557 262.078 197.486C262.061 197.377 262.026 197.271 261.976 197.173C261.842 195.857 261.714 194.546 261.605 193.23C261.604 193.064 261.545 192.905 261.439 192.778C261.333 192.651 261.186 192.564 261.024 192.533C260.839 191.696 260.66 190.859 260.475 190.022C260.289 189.184 260.11 188.334 259.932 187.465L259.625 185.037C259.594 184.884 259.52 184.743 259.413 184.63C259.306 184.517 259.169 184.436 259.018 184.398C258.92 184.221 258.809 184.052 258.686 183.893C258.674 183.875 258.659 183.859 258.641 183.848C258.143 181.828 257.553 179.826 256.871 177.84C256.756 177.374 256.648 176.907 256.526 176.447C256.499 176.306 256.438 176.175 256.347 176.063C256.257 175.952 256.141 175.864 256.009 175.808C255.944 175.721 255.866 175.643 255.779 175.578L255.549 174.984C255.447 174.722 255.332 174.466 255.23 174.21C254.463 170.964 253.013 167.864 251.748 164.797C251.683 164.624 251.558 164.481 251.396 164.394L251.32 164.17C251.224 163.876 251.122 163.589 251.02 163.301C250.943 163.02 250.836 162.748 250.7 162.489V162.457C250.649 162.355 250.592 162.266 250.534 162.163C250.375 161.95 250.151 161.795 249.895 161.723C249.895 161.588 249.838 161.48 249.812 161.403C249.419 160.042 248.902 158.719 248.266 157.453C246.886 154.808 245.072 152.417 243.794 149.701C243.513 149.062 243.079 148.071 243.832 147.784C244.28 147.599 245.148 148.008 245.621 148.052C246.26 148.11 246.861 148.155 247.474 148.244C248.541 148.391 249.608 148.557 250.668 148.717C250.72 148.791 250.788 148.854 250.866 148.9C250.944 148.946 251.031 148.975 251.122 148.985C252.399 149.158 253.677 149.362 254.955 149.586C255.102 149.716 255.28 149.804 255.472 149.842C256.488 150.053 257.517 150.225 258.545 150.379C259.382 150.538 260.219 150.711 261.056 150.89C262.417 152.034 264.666 152.168 266.327 152.507C268.29 152.933 270.232 153.425 272.153 153.983C275.347 155.261 278.541 156.539 281.736 157.818C283.648 158.55 285.552 159.296 287.447 160.054C287.556 160.195 287.688 160.316 287.837 160.412C288.072 160.558 288.34 160.641 288.616 160.655L288.795 160.764C290.073 161.524 291.351 162.259 292.66 163.001C294.653 164.145 296.602 165.353 298.531 166.605C299.17 167.206 299.809 167.813 300.397 168.433C300.562 168.612 300.782 168.732 301.022 168.774C301.261 168.817 301.509 168.78 301.726 168.669C301.947 168.842 302.18 169 302.422 169.142C303.489 170.625 305.112 171.558 306.555 172.657C307.79 173.615 308.976 174.634 310.107 175.712C310.264 176.02 310.436 176.318 310.625 176.607C311.094 177.443 311.784 178.135 312.618 178.607C313.391 179.572 314.164 180.525 314.969 181.458C314.656 183.937 314.33 186.404 313.896 188.865C313.885 188.933 313.892 189.002 313.915 189.066C313.937 189.131 313.976 189.189 314.026 189.235C314.077 189.281 314.138 189.314 314.205 189.331C314.271 189.348 314.341 189.348 314.407 189.331L313.602 193.517C313.276 194.847 312.963 196.176 312.541 197.493C312.524 197.546 312.52 197.604 312.53 197.66C312.54 197.715 312.564 197.768 312.599 197.812L312.548 197.959C312.525 198.015 312.517 198.076 312.526 198.136C312.535 198.195 312.56 198.251 312.599 198.298C312.529 198.522 312.465 198.745 312.401 198.975C311.998 200.106 311.583 201.238 311.123 202.343C311.106 202.38 311.097 202.42 311.098 202.46C311.099 202.501 311.108 202.54 311.127 202.576C311.146 202.612 311.172 202.643 311.205 202.667C311.237 202.691 311.275 202.707 311.315 202.714C310.995 203.532 310.676 204.337 310.28 205.123C310.247 205.184 310.236 205.255 310.248 205.323C310.259 205.391 310.293 205.453 310.344 205.5C310.222 205.807 310.114 206.14 309.992 206.427C309.756 206.938 309.507 207.437 309.239 207.929C309.207 207.978 309.191 208.034 309.191 208.092C309.191 208.15 309.207 208.206 309.239 208.255C309.085 208.613 308.951 208.977 308.798 209.341C308.76 209.438 308.76 209.545 308.798 209.642L308.702 209.846C307.833 211.61 306.964 213.38 306.025 215.106C305.994 215.152 305.978 215.207 305.978 215.263C305.978 215.318 305.994 215.373 306.025 215.419C304.832 217.797 303.457 220.079 301.911 222.245C301.856 222.237 301.8 222.245 301.75 222.269C301.7 222.293 301.658 222.331 301.63 222.379C301.413 222.692 301.176 223.018 300.953 223.299C300.885 223.271 300.809 223.268 300.739 223.29C300.669 223.312 300.609 223.359 300.569 223.421C299.969 224.315 299.373 225.21 298.781 226.105C298.372 226.603 297.975 227.108 297.554 227.594C297.51 227.649 297.486 227.718 297.486 227.789C297.486 227.86 297.51 227.928 297.554 227.984L297.234 228.469C297.199 228.505 297.172 228.549 297.158 228.597C297.081 228.712 297.004 228.821 296.934 228.936C296.711 229.268 297.228 229.575 297.452 229.268L297.873 228.629C298.717 227.932 299.518 227.183 300.269 226.386V226.354C300.331 226.395 300.406 226.412 300.48 226.403C300.553 226.393 300.621 226.358 300.672 226.303C301.438 225.549 302.166 224.75 302.876 223.926C303.904 222.875 304.87 221.765 305.77 220.602C306.076 220.238 306.408 219.874 306.67 219.503C306.728 219.448 306.777 219.386 306.817 219.318C307.086 218.973 307.347 218.627 307.603 218.276C307.669 218.281 307.735 218.27 307.795 218.243C307.855 218.216 307.908 218.175 307.948 218.123C308.733 217.079 309.461 215.993 310.127 214.87C310.172 214.914 310.226 214.946 310.286 214.966C310.346 214.985 310.41 214.989 310.472 214.979C310.534 214.969 310.593 214.945 310.644 214.908C310.695 214.871 310.737 214.823 310.765 214.767L311.404 213.336C311.693 213.189 311.919 212.944 312.043 212.645C312.286 212.045 312.516 211.438 312.752 210.83C313.18 210.054 313.554 209.249 313.87 208.421C314.041 208.313 314.176 208.157 314.26 207.974C314.976 206.465 315.634 204.925 316.266 203.372C316.53 203.238 316.735 203.01 316.841 202.733C318.083 199.467 319.126 196.13 319.965 192.738C320.201 191.926 320.425 191.114 320.604 190.296H320.815C321.228 191.366 321.697 192.414 322.22 193.434L322.393 193.799C322.393 193.843 322.52 194.118 322.54 194.15C322.655 194.438 322.763 194.732 322.859 195.032C322.904 195.179 322.942 195.326 322.98 195.473C322.98 195.511 323.019 195.652 323.025 195.697C323.083 196.055 323.185 196.4 323.255 196.758C323.309 196.991 323.425 197.206 323.592 197.378C323.758 197.551 323.969 197.674 324.201 197.735C324.343 198.855 324.644 199.948 325.095 200.982C325.546 202.269 325.763 203.626 325.734 204.989C325.723 205.221 325.802 205.449 325.956 205.623C326.11 205.798 326.325 205.906 326.557 205.924C326.789 205.942 327.018 205.869 327.197 205.721C327.376 205.573 327.491 205.361 327.516 205.13C327.772 203.212 328.078 201.244 328.257 199.282C328.523 197.163 328.617 195.026 328.538 192.891C328.526 192.676 328.445 192.47 328.308 192.303C328.308 192.099 328.308 191.907 328.308 191.741C328.308 191.351 328.308 190.961 328.308 190.578C328.308 189.753 328.27 188.922 328.206 188.104C328.081 186.325 327.847 184.556 327.504 182.806C326.8 179.61 325.728 176.507 324.309 173.559C324.066 172.619 323.753 171.692 323.46 170.823C322.818 168.949 322.043 167.123 321.141 165.359C319.368 162.053 317.357 158.881 315.122 155.868C315.016 155.709 314.853 155.596 314.667 155.553C314.48 155.51 314.284 155.541 314.119 155.638C313.283 154.488 312.42 153.363 311.564 152.264C310.286 150.66 309.085 149.068 307.782 147.477C307.073 146.634 306.37 145.777 305.642 144.921C305.005 144.119 304.311 143.365 303.566 142.665C303.413 142.533 303.223 142.452 303.022 142.435C302.499 141.796 301.975 141.201 301.425 140.607C300.282 139.373 299.164 138.14 298.091 136.843C300.882 137.482 304.326 137.284 306.491 137.405C310.05 137.603 313.621 137.68 317.186 137.718C317.287 137.758 317.396 137.778 317.505 137.776L318.406 137.731H322.067C322.862 137.746 323.655 137.664 324.431 137.488C325.991 137.407 327.539 137.178 329.056 136.804C330.781 136.491 332.499 136.127 334.205 135.731C335.208 135.532 336.205 135.315 337.201 135.091C337.224 135.12 337.249 135.146 337.278 135.168C337.406 136.382 337.508 137.59 337.617 138.805C337.618 138.89 337.643 138.974 337.688 139.047C337.733 139.12 337.796 139.18 337.872 139.22C337.872 139.29 337.872 139.361 337.872 139.431C337.867 139.521 337.89 139.611 337.938 139.688C337.986 139.765 338.057 139.825 338.14 139.859C338.14 140.057 338.14 140.243 338.179 140.441C338.179 140.792 338.179 141.15 338.147 141.508C338.143 141.594 338.164 141.68 338.205 141.755C338.247 141.831 338.309 141.893 338.383 141.936C338.368 141.971 338.367 142.01 338.38 142.046C338.393 142.082 338.419 142.111 338.453 142.128C338.453 142.371 338.453 142.614 338.453 142.856C338.453 143.349 339.226 143.304 339.22 142.812L339.163 140.377C339.262 139.426 339.274 138.467 339.201 137.514C339.201 136.683 339.105 135.846 339.022 135.015C339.098 134.89 339.136 134.745 339.131 134.599C340.575 134.21 342.006 133.788 343.424 133.321C343.636 133.503 343.863 133.668 344.101 133.813C347.787 137.252 352.406 139.52 356.936 141.649C357.04 141.693 357.149 141.726 357.261 141.744C358.763 142.479 360.226 143.285 361.733 143.962C362.027 144.09 362.328 144.199 362.621 144.314C363.133 145.012 363.757 145.621 364.468 146.116C364.691 146.323 364.932 146.509 365.19 146.672C365.469 146.852 365.775 146.986 366.097 147.068L366.186 147.183C366.496 147.515 366.916 147.722 367.368 147.765C367.566 147.778 367.765 147.759 367.956 147.707C368.345 147.927 368.788 148.033 369.234 148.014C372.671 147.899 376.101 147.714 379.526 147.439C384.298 147.234 389.055 146.752 393.772 145.994C398.901 149.036 403.781 152.481 408.364 156.297C408.978 156.832 409.731 157.182 410.536 157.306C410.593 157.453 410.638 157.6 410.708 157.747C410.708 157.747 410.708 157.747 410.708 157.779C410.708 157.811 410.798 157.984 410.855 158.092C410.923 158.215 411.015 158.322 411.124 158.409C411.234 158.495 411.36 158.559 411.494 158.597C411.459 158.889 411.51 159.185 411.641 159.447C412.271 160.751 412.872 162.068 413.443 163.397C413.577 163.71 413.704 164.036 413.832 164.336C413.698 164.597 413.671 164.9 413.756 165.18C413.756 165.18 413.756 165.18 413.756 165.218C413.756 165.257 413.832 165.436 413.845 165.48L414.037 165.998C414.164 166.347 414.299 166.693 414.439 167.033C414.72 167.717 415.021 168.382 415.359 169.034C415.634 169.571 415.928 170.095 416.228 170.612C416.528 171.13 416.637 171.622 416.867 172.127C416.956 172.351 417.052 172.562 417.142 172.766C417.163 173.268 417.263 173.764 417.435 174.236L417.633 174.773C417.64 174.861 417.653 174.949 417.672 175.035L417.902 176.051C417.942 176.201 418.012 176.342 418.107 176.465C418.203 176.588 418.322 176.691 418.458 176.767C418.643 177.566 418.847 178.365 419.058 179.163C419.144 179.473 419.348 179.737 419.627 179.898C420.649 183.822 421.876 187.708 423.179 191.536C423.92 193.703 424.667 195.857 425.44 198.01C425.817 199.078 426.213 200.145 426.609 201.206C426.874 202.113 427.205 202.999 427.6 203.858C428.008 205.705 428.385 207.558 428.762 209.405C428.809 209.603 428.898 209.788 429.026 209.946C429.153 210.104 429.314 210.232 429.497 210.319C429.714 211.566 430.061 212.787 430.532 213.962C430.583 214.096 430.628 214.237 430.679 214.377C430.658 214.483 430.647 214.59 430.647 214.697C430.645 215.644 430.915 216.571 431.426 217.368C431.618 218.007 431.816 218.647 432.014 219.33C432.161 219.823 432.308 220.308 432.449 220.794C432.327 220.972 432.251 221.177 432.23 221.392C432.209 221.606 432.242 221.823 432.327 222.021C433.897 226.096 434.834 230.387 435.106 234.745C435.11 234.975 435.179 235.199 435.306 235.39C435.433 235.582 435.612 235.733 435.822 235.825C435.852 237.157 436.172 238.466 436.761 239.66C436.764 239.698 436.764 239.737 436.761 239.775C436.716 240.555 436.742 241.338 436.837 242.114C437.055 243.552 437.419 244.977 437.777 246.383C437.885 246.799 437.987 247.214 438.096 247.629C438.034 248.016 438.017 248.408 438.045 248.799C438.045 249.227 438.141 249.655 438.211 250.077C438.221 250.125 438.241 250.17 438.27 250.21C438.298 250.249 438.335 250.283 438.377 250.307C438.479 250.787 438.575 251.266 438.652 251.745V251.86C438.722 252.314 438.773 252.768 438.818 253.215C438.802 253.336 438.802 253.459 438.818 253.579L438.971 254.691C438.969 254.726 438.969 254.76 438.971 254.794C439.067 255.465 439.157 256.129 439.252 256.794C439.181 256.885 439.149 256.999 439.163 257.114C439.764 262.396 439.897 267.721 439.559 273.027C439.518 273.092 439.496 273.167 439.495 273.244C439.495 273.883 439.463 274.471 439.45 275.085C439.454 275.132 439.454 275.179 439.45 275.226C439.45 275.443 439.45 275.667 439.45 275.865C439.394 275.911 439.348 275.968 439.315 276.033C439.282 276.098 439.263 276.169 439.259 276.242C439.11 277.661 439.12 279.093 439.291 280.511C439.291 280.511 439.291 280.549 439.291 280.581C439.261 281.531 439.308 282.482 439.431 283.425C439.396 283.452 439.368 283.486 439.347 283.524C439.326 283.563 439.313 283.605 439.31 283.649C439.276 284.177 439.25 284.708 439.233 285.24C439.23 285.324 439.258 285.405 439.311 285.47C439.364 285.534 439.438 285.578 439.521 285.592C439.521 285.981 439.521 286.365 439.521 286.755C439.497 288.677 439.606 290.599 439.846 292.507C439.818 292.596 439.816 292.692 439.841 292.783C439.866 292.874 439.917 292.955 439.987 293.018C439.987 293.369 440.032 293.715 440.064 294.066C440.166 295.069 440.249 296.073 440.396 297.07C440.423 297.268 440.515 297.453 440.658 297.594C440.766 299.077 440.913 300.553 441.143 302.023C441.16 302.133 441.199 302.239 441.258 302.334C441.318 302.428 441.396 302.51 441.488 302.572C441.424 302.988 441.361 303.403 441.316 303.851C441.271 304.298 441.75 304.413 442.057 304.215C442.364 304.017 442.415 303.442 442.562 303.058C442.842 302.447 443.185 301.867 443.584 301.326C444.338 300.157 445.162 299.038 445.935 297.888C450.656 290.903 454.636 283.54 455.467 274.97C455.467 274.785 455.505 274.593 455.518 274.408C455.639 273.826 455.754 273.238 455.869 272.656C455.934 272.374 455.935 272.081 455.871 271.799C455.806 271.517 455.679 271.253 455.498 271.027C455.558 269.872 455.528 268.713 455.409 267.563C455.437 263.126 454.673 258.72 453.154 254.551C453.617 254.098 454.054 253.621 454.464 253.119C456.617 251.924 457.824 249.924 458.718 247.738C458.96 247.584 459.166 247.382 459.325 247.144C460.096 245.919 460.69 244.592 461.088 243.201C461.191 242.868 461.287 242.53 461.382 242.184L461.536 242.108C462.047 242.112 462.549 241.975 462.986 241.711C463.686 241.302 464.351 240.833 464.973 240.312C465.347 240.248 465.694 240.075 465.969 239.813L466.161 239.628C467.105 239.146 467.907 238.426 468.486 237.538C468.646 237.447 468.794 237.338 468.927 237.212C469.705 236.498 470.378 235.679 470.927 234.777C470.991 234.656 471.048 234.528 471.106 234.4C471.245 234.265 471.371 234.118 471.483 233.959C471.713 233.633 471.923 233.32 472.122 232.962C472.161 232.912 472.198 232.858 472.23 232.803C472.75 231.943 473.213 231.051 473.617 230.131C473.763 229.844 473.91 229.556 474.038 229.262C474.067 229.23 474.092 229.196 474.115 229.16C474.811 227.829 475.357 226.425 475.744 224.974C476.184 223.533 476.536 222.067 476.798 220.583C476.815 220.503 476.804 220.419 476.766 220.347C476.964 219.445 477.124 218.538 477.245 217.63C477.287 217.556 477.311 217.473 477.316 217.388L477.411 216.109C477.442 216.028 477.453 215.94 477.443 215.854V215.854Z"
            fill="#333333" />
    </g>
    <g id="lines">
        <path id="Vector_3"
            d="M366.672 147.995C381.953 148.27 397.478 147.637 411.545 140.965C419.671 137.131 426.724 131.468 435.183 128.235C445.098 124.445 455.805 124.611 462.328 134.038"
            stroke="black" stroke-width="2" stroke-miterlimit="10" />
        <path id="Vector_4" d="M61.9375 314.403C61.9375 314.403 75.0787 350.991 112.752 342.888" stroke="black"
            stroke-width="2" stroke-miterlimit="10" />
        <path id="Vector_5" d="M82.0859 329.083C82.0859 329.083 88.6598 340.478 110.56 335.436" stroke="black"
            stroke-width="2" stroke-miterlimit="10" />
        <path id="Vector_6" d="M96.1035 316.594C96.1035 316.594 103.77 325.541 113.193 295.338" stroke="black"
            stroke-width="2" stroke-miterlimit="10" />
        <path id="Vector_7" d="M82.0859 316.371C82.0859 316.371 95.0101 327.983 108.809 325.797" stroke="black"
            stroke-width="2" stroke-miterlimit="10" />
        <path id="Vector_8" d="M154.367 402.707C154.367 402.707 140.133 308.926 152.833 285.26" stroke="black"
            stroke-width="2" stroke-miterlimit="10" />
        <path id="Vector_9" d="M118.445 269.973C118.445 269.973 114.503 292.98 123.211 315.987" stroke="black"
            stroke-width="2" stroke-miterlimit="10" />
        <path id="Vector_10"
            d="M116.311 344.255C116.311 344.255 120.91 348.364 122.392 364.795C122.392 364.795 124.577 356.487 125.676 358.225C126.775 359.964 133.56 380.594 132.467 385.617C131.375 390.64 131.592 397.229 131.592 397.229"
            stroke="black" stroke-width="2" stroke-miterlimit="10" />
        <path id="Vector_11" d="M82.3047 53.8441C82.3047 53.8441 165.433 -33.2516 332.992 16.0481" stroke="black"
            stroke-width="2" stroke-miterlimit="10" />
        <path id="Vector_12" d="M138.211 68.1725C138.211 68.1725 159.772 86.3866 226.424 66.2104" stroke="black"
            stroke-width="2" stroke-miterlimit="10" />
        <path id="Vector_13"
            d="M126.711 129.807C126.711 129.807 138.753 136.837 163.394 130.65C188.035 124.464 211.564 129.807 211.564 129.807"
            stroke="black" stroke-width="2" stroke-miterlimit="10" />
        <path id="Vector_14"
            d="M169.859 140.013C169.859 140.154 169.603 139.981 169.699 139.879C169.795 139.777 169.974 139.834 170.102 139.879C174.28 142.007 179.046 142.691 183.76 142.633C188.475 142.576 193.101 141.809 197.751 141.182C210.386 139.49 223.137 138.836 235.878 139.227"
            stroke="black" stroke-width="2" stroke-miterlimit="10" />
        <path id="Vector_15"
            d="M173.227 122.361C173.169 122.112 173.425 121.914 173.649 121.792C176.724 120.088 179.82 118.435 182.938 116.833C186.407 115.031 189.92 113.267 193.095 110.972C195.393 109.246 197.586 107.385 199.663 105.399"
            stroke="black" stroke-width="2" stroke-miterlimit="10" />
        <path id="Vector_16"
            d="M205.68 123.217C205.685 123.122 205.717 123.03 205.772 122.951C205.828 122.873 205.904 122.813 205.993 122.776C206.063 122.968 206.312 123.013 206.516 123.019C210.815 123.19 215.121 123.034 219.396 122.553"
            stroke="black" stroke-width="2" stroke-miterlimit="10" />
        <path id="Vector_17"
            d="M113.934 136.07C115.154 136.639 116.342 137.271 117.556 137.853C119.626 138.844 121.766 139.681 123.906 140.524C135.271 144.998 146.643 149.74 156.858 156.451"
            stroke="black" stroke-width="2" stroke-miterlimit="10" />
        <path id="Vector_18"
            d="M288.731 104.422C288.629 104.326 288.897 104.211 288.948 104.345C289 104.479 288.897 104.607 288.795 104.71C281.424 111.841 272.942 117.725 263.682 122.131"
            stroke="black" stroke-width="2" stroke-miterlimit="10" />
        <path id="Vector_19"
            d="M262.296 103.975C262.411 103.821 262.481 104.185 262.334 104.307C252.851 112.377 241.931 118.586 230.148 122.611"
            stroke="black" stroke-width="2" stroke-miterlimit="10" />
        <path id="Vector_20"
            d="M221.05 82.8335H220.98C209.474 85.5157 197.738 87.0908 185.932 87.5372C177.237 87.844 168.395 87.4605 160.109 84.8211"
            stroke="black" stroke-width="2" stroke-miterlimit="10" />
        <path id="Vector_21"
            d="M52.8911 127.933C52.7505 128.017 52.6356 127.755 52.7442 127.633C52.8734 127.54 53.026 127.484 53.1849 127.473C53.5311 127.35 53.8335 127.128 54.0539 126.834C65.4469 114.488 74.9983 100.562 82.4126 85.4849"
            stroke="black" stroke-width="2" stroke-miterlimit="10" />
        <path id="Vector_22" d="M69.7383 126.592C78.367 115.085 85.3488 102.431 90.4819 88.9941" stroke="black"
            stroke-width="2" stroke-miterlimit="10" />
        <path id="Vector_23"
            d="M66.8887 208.345C65.8793 205.616 65.6109 202.683 65.3618 199.781C63.74 179.13 64.9329 158.355 68.9074 138.025"
            stroke="black" stroke-width="2" stroke-miterlimit="10" />
        <path id="Vector_24" d="M77.2246 140.479C80.7148 134.139 83.418 127.395 85.2741 120.399" stroke="black"
            stroke-width="2" stroke-miterlimit="10" />
        <path id="Vector_25"
            d="M91.1588 199.659C91.3185 199.742 90.9734 199.819 90.8776 199.659C90.0892 198.245 89.4696 196.744 89.0314 195.185C86.1821 186.36 83.3711 177.47 81.8698 168.344C80.3885 159.292 80.2078 150.074 81.3331 140.971"
            stroke="black" stroke-width="2" stroke-miterlimit="10" />
        <path id="Vector_26"
            d="M107.405 189.703C107.52 189.633 107.545 189.914 107.405 189.92C107.264 189.927 107.188 189.773 107.137 189.645C101.696 175.748 98.8908 160.959 98.8633 146.034"
            stroke="black" stroke-width="2" stroke-miterlimit="10" />
        <path id="Vector_27"
            d="M119.773 181.804C118.125 172.978 117.946 163.947 117.857 154.962C117.818 151.338 117.799 147.651 118.802 144.161"
            stroke="black" stroke-width="2" stroke-miterlimit="10" />
        <path id="Vector_28"
            d="M106.178 151.511C105.916 151.645 105.628 151.402 105.443 151.178C100.428 145.331 96.7609 138.396 93.9435 131.251C91.1262 124.106 89.0818 116.629 87.0566 109.196"
            stroke="black" stroke-width="2" stroke-miterlimit="10" />
        <path id="Vector_29"
            d="M138.211 59.5575H137.271C143.475 59.1741 149.857 58.8098 155.798 60.7143C159.51 61.9094 162.883 63.9481 166.474 65.4627"
            stroke="black" stroke-width="2" stroke-miterlimit="10" />
        <path id="Vector_30"
            d="M294.175 108.557C294.002 108.359 293.855 107.835 294.175 107.726C294.494 107.617 294.941 108.237 295.101 108.435C296.577 110.27 298.749 111.631 300.729 112.909C304.345 115.191 308.128 117.229 311.897 119.243C315.656 121.251 319.525 123.045 323.486 124.617L325.274 125.314"
            stroke="black" stroke-width="2" stroke-miterlimit="10" />
        <path id="Vector_31" d="M303.316 118.923C309.947 122.562 316.932 125.515 324.162 127.736" stroke="black"
            stroke-width="2" stroke-miterlimit="10" />
        <path id="Vector_32"
            d="M301.561 124.285C302.367 125.052 303.364 125.588 304.448 125.838C310.249 127.689 316.162 129.169 322.151 130.267"
            stroke="black" stroke-width="2" stroke-miterlimit="10" />
        <path id="Vector_33"
            d="M298.621 130.069C300.079 130.83 301.649 131.354 303.272 131.622C308.711 132.802 314.188 133.759 319.703 134.491C321.764 134.845 323.862 134.929 325.945 134.741"
            stroke="black" stroke-width="2" stroke-miterlimit="10" />
        <path id="Vector_34" d="M209.123 145.874C209.123 145.874 312.944 140.946 326.634 207.009" stroke="black"
            stroke-width="2" stroke-miterlimit="10" />
        <path id="Vector_35"
            d="M207.264 107.445C207.264 107.445 216.137 111.497 254.903 97.6925C293.669 83.8881 345.148 97.5838 339.564 170.223"
            stroke="black" stroke-width="2" stroke-miterlimit="10" />
        <path id="Vector_36"
            d="M167.074 53.2051C167.074 53.2051 169.54 53.8442 177.258 61.0979C184.975 68.3516 197.465 67.1756 197.957 67.0095"
            stroke="black" stroke-width="2" stroke-miterlimit="10" />
        <path id="Vector_37" d="M282.727 125.359C282.727 125.359 369.298 180.743 304.901 240.396" stroke="black"
            stroke-width="2" stroke-miterlimit="10" />
        <path id="Vector_38" d="M234.754 160.036C234.754 160.036 254.795 178.768 259.395 213.605" stroke="black"
            stroke-width="2" stroke-miterlimit="10" />
        <path id="Vector_39" d="M245.436 152.967C245.436 152.967 267.61 188.955 263.177 224.782" stroke="black"
            stroke-width="2" stroke-miterlimit="10" />
        <path id="Vector_40" d="M315.25 87.397C315.25 87.397 343.998 93.315 353.198 125.027" stroke="black"
            stroke-width="2" stroke-miterlimit="10" />
        <path id="Vector_41"
            d="M343.182 133.092C343.182 133.092 345.315 136.217 358.623 142.461C371.93 148.705 378.83 164.318 379.156 170.402"
            stroke="black" stroke-width="2" stroke-miterlimit="10" />
        <path id="Vector_42" d="M144.293 177.017C144.293 177.017 137.502 189.287 151.959 199.8" stroke="black"
            stroke-width="2" stroke-miterlimit="10" />
        <path id="Vector_43"
            d="M231.482 73.8092C231.482 73.8092 235.641 76.4422 246.176 73.5919C256.711 70.7415 303.999 64.1716 333.789 73.8092"
            stroke="black" stroke-width="2" stroke-miterlimit="10" />
        <path id="Vector_44" d="M160.283 169.124C160.283 169.124 201.898 212.071 186.131 245.381" stroke="black"
            stroke-width="2" stroke-miterlimit="10" />
        <path id="Vector_45" d="M281.852 236.625C281.852 236.625 310.76 231.371 320.617 190.833" stroke="black"
            stroke-width="2" stroke-miterlimit="10" />
        <path id="Vector_46" d="M74.2032 61.5132C74.2032 61.5132 19.9004 126.592 35.8718 224.757" stroke="black"
            stroke-width="2" stroke-miterlimit="10" />
        <path id="Vector_47" d="M90.1945 479.066C91.1208 474.432 88.4056 468.022 87.8945 462.449" stroke="black"
            stroke-width="2" stroke-miterlimit="10" />
        <path id="Vector_48" d="M172.824 155.269C172.824 155.269 200.749 174.167 215.04 211.47" stroke="black"
            stroke-width="2" stroke-miterlimit="10" />
        <path id="Vector_49" d="M89.2031 210.652C89.2031 210.652 94.4608 228.725 109.41 238.587" stroke="black"
            stroke-width="2" stroke-miterlimit="10" />
        <path id="Vector_50" d="M111.219 268.33C111.219 268.33 131.918 274.082 140.606 265.704" stroke="black"
            stroke-width="2" stroke-miterlimit="10" />
        <path id="Vector_51" d="M179.736 221.332C179.736 221.332 184.994 232.011 180.375 243.7" stroke="black"
            stroke-width="2" stroke-miterlimit="10" />
        <path id="Vector_52"
            d="M347.283 102.678C347.283 102.678 351.883 106.787 363.548 100.377C375.214 93.9668 394.271 92.1646 406.754 93.3469"
            stroke="black" stroke-width="2" stroke-miterlimit="10" />
        <path id="Vector_53"
            d="M69.3281 256.827C69.3281 256.827 79.1858 276.715 83.6194 281.317C88.0531 285.918 88.7303 297.09 88.7303 297.09"
            stroke="black" stroke-width="2" stroke-miterlimit="10" />
        <path id="Vector_54" d="M60.1289 252.558C60.1289 252.558 68.8365 284.269 80.8278 295.773" stroke="black"
            stroke-width="2" stroke-miterlimit="10" />
        <path id="Vector_55"
            d="M65.3809 361.51C65.3809 361.51 69.6484 373.506 70.1403 380.408C70.6322 387.31 70.9645 404.24 76.2222 412.951C81.48 421.662 80.9881 435.792 80.9881 435.792"
            stroke="black" stroke-width="2" stroke-miterlimit="10" />
        <path id="Vector_56"
            d="M41.8392 280.832C40.7509 293.123 42.556 305.498 47.1098 316.966C50.97 326.645 54.2322 336.553 56.8779 346.633C58.4048 352.429 60.1745 358.462 60.6217 364.47"
            stroke="black" stroke-width="2" stroke-miterlimit="10" />
        <path id="Vector_57" d="M202.23 154.284C202.23 154.284 231.139 178.11 237.879 227.742" stroke="black"
            stroke-width="2" stroke-miterlimit="10" />
        <path id="Vector_58" d="M194.016 154.284C194.016 154.284 212.248 167.264 224.08 198.816" stroke="black"
            stroke-width="2" stroke-miterlimit="10" />
        <path id="Vector_59" d="M129.125 213.278C129.125 213.278 145.735 221.331 159.024 215.413" stroke="black"
            stroke-width="2" stroke-miterlimit="10" />
        <path id="Vector_60" d="M111.711 240.063C111.711 240.063 127.644 242.696 136.192 235.462" stroke="black"
            stroke-width="2" stroke-miterlimit="10" />
        <path id="Vector_61" d="M390.98 135.38C390.98 135.38 403.119 132.428 405.112 132.587" stroke="black"
            stroke-width="2" stroke-miterlimit="10" />
        <path id="Vector_62"
            d="M370.115 129.136C370.115 129.136 376.025 131.769 386.048 127.327C396.072 122.885 421.185 117.472 435.33 117.798"
            stroke="black" stroke-width="2" stroke-miterlimit="10" />
        <path id="Vector_63" d="M366.832 114.839C366.832 114.839 393.447 101.201 413.82 103.668" stroke="black"
            stroke-width="2" stroke-miterlimit="10" />
        <path id="Vector_64"
            d="M75.7363 416.51C75.7363 416.51 75.0974 425.272 76.8287 432.283C78.56 439.294 80.9942 449.155 81.4286 453.539C81.863 457.924 82.0674 442.368 83.6198 440.393"
            stroke="black" stroke-width="2" stroke-miterlimit="10" />
        <path id="Vector_65"
            d="M90.6855 438.578C90.6855 438.578 92.8192 453.207 91.8354 458.959C90.8515 464.711 94.1352 458.32 97.2529 457.642"
            stroke="black" stroke-width="2" stroke-miterlimit="10" />
        <path id="Vector_66"
            d="M79.6777 407.857C79.6777 407.857 85.0954 415.743 83.7857 422.646C82.476 429.548 84.7694 440.067 85.9194 441.87"
            stroke="black" stroke-width="2" stroke-miterlimit="10" />
        <path id="Vector_67"
            d="M79.3457 392.404C79.3457 392.404 87.2355 398.156 86.7436 408.676C86.2516 419.195 99.0607 449.431 110.726 447.954"
            stroke="black" stroke-width="2" stroke-miterlimit="10" />
        <path id="Vector_68"
            d="M111.545 457.975C112.134 459.877 113.388 461.505 115.076 462.561C116.765 463.617 118.776 464.03 120.744 463.726"
            stroke="black" stroke-width="2" stroke-miterlimit="10" />
        <path id="Vector_69" d="M104.645 431.19C104.645 431.19 111.033 445.486 121.894 440.227" stroke="black"
            stroke-width="2" stroke-miterlimit="10" />
        <path id="Vector_70" d="M94.4609 448.279C94.4609 448.279 103.003 462.416 107.443 465.701" stroke="black"
            stroke-width="2" stroke-miterlimit="10" />
        <path id="Vector_71" d="M106.127 458.799C106.127 458.799 106.619 466.852 114.668 469.153" stroke="black"
            stroke-width="2" stroke-miterlimit="10" />
        <path id="Vector_72" d="M97.7452 455.349C97.7452 455.349 95.1195 464.226 104.319 471.128" stroke="black"
            stroke-width="2" stroke-miterlimit="10" />
        <path id="Vector_73" d="M135.092 398.539C135.092 398.539 141.883 410.158 151.063 414.101" stroke="black"
            stroke-width="2" stroke-miterlimit="10" />
        <path id="Vector_74"
            d="M35.8711 230.043C35.8711 230.043 38.714 239.029 37.1808 242.748C35.6475 246.468 36.7463 263.787 40.0301 274.741"
            stroke="black" stroke-width="2" stroke-miterlimit="10" />
        <path id="Vector_75" d="M445.686 147.216C445.686 147.216 461.893 167.156 461.893 180.743" stroke="black"
            stroke-width="2" stroke-miterlimit="10" />
        <path id="Vector_76"
            d="M447.82 262.911C447.82 262.911 449.302 271.781 448.152 275.232C447.002 278.683 443.041 290.187 443.041 290.187"
            stroke="black" stroke-width="2" stroke-miterlimit="10" />
        <path id="Vector_77"
            d="M428.252 176.141C428.252 176.141 437.618 196.681 439.592 205.226C441.566 213.77 443.367 238.586 447.475 247.623"
            stroke="black" stroke-width="2" stroke-miterlimit="10" />
        <path id="Vector_78" d="M436.979 167.098C436.979 167.098 451.602 198.49 452.26 204.076" stroke="black"
            stroke-width="2" stroke-miterlimit="10" />
        <path id="Vector_79" d="M439.111 160.036C439.111 160.036 459.97 177.784 459.81 192.572" stroke="black"
            stroke-width="2" stroke-miterlimit="10" />
        <path id="Vector_80"
            d="M384.08 117.473C384.08 117.473 394.941 115.332 403.303 112.36C411.666 109.388 429.586 108.091 438.293 111.542"
            stroke="black" stroke-width="2" stroke-miterlimit="10" />
        <path id="Vector_81" d="M452.037 144.807C452.037 144.807 460.802 155.32 462.553 161.02" stroke="black"
            stroke-width="2" stroke-miterlimit="10" />
        <path id="Vector_82" d="M451.436 251.567C451.436 251.567 460.635 258.31 463.574 253.376" stroke="black"
            stroke-width="2" stroke-miterlimit="10" />
        <path id="Vector_83" d="M156.34 175.042C156.34 175.042 173.423 199.149 174.298 217.554" stroke="black"
            stroke-width="2" stroke-miterlimit="10" />
        <path id="Vector_84" d="M242.637 86.955C242.637 86.955 280.093 74.9081 298.058 79.5096" stroke="black"
            stroke-width="2" stroke-miterlimit="10" />
        <path id="Vector_85" d="M454.56 260.111C454.56 260.111 458.17 275.232 453.244 285.752" stroke="black"
            stroke-width="2" stroke-miterlimit="10" />
        <path id="Vector_86"
            d="M42.663 191.249C40.3184 196.579 41.7687 202.452 41.6601 208.038C41.5643 212.933 38.932 218.998 42.0049 223.459"
            stroke="black" stroke-width="2" stroke-miterlimit="10" />
        <path id="Vector_87"
            d="M43.0195 233.327C43.0195 233.327 43.6584 234.311 44.6614 240.063C45.6644 245.815 46.6291 246.805 48.437 248.94"
            stroke="black" stroke-width="2" stroke-miterlimit="10" />
        <path id="Vector_88" d="M121.242 247.789C121.242 247.789 145.225 252.059 155.9 220.839" stroke="black"
            stroke-width="2" stroke-miterlimit="10" />
        <path id="Vector_89" d="M47.3145 186.986C47.3145 186.986 53.3964 208.677 49.6144 221.005" stroke="black"
            stroke-width="2" stroke-miterlimit="10" />
        <path id="Vector_90" d="M134.377 195.723C134.377 195.723 139.961 204.759 145.71 207.552" stroke="black"
            stroke-width="2" stroke-miterlimit="10" />
        <path id="Vector_91" d="M130.168 256.993C130.168 256.993 144.862 259.511 162.801 236.836" stroke="black"
            stroke-width="2" stroke-miterlimit="10" />
        <path id="Vector_92"
            d="M132.244 287.01C132.244 287.01 131.151 305.416 131.368 310.893C131.586 316.37 130.73 340.477 133.56 348.804"
            stroke="black" stroke-width="2" stroke-miterlimit="10" />
        <path id="Vector_93" d="M137.501 275.565C138.328 282.207 137.939 288.945 136.352 295.447" stroke="black"
            stroke-width="2" stroke-miterlimit="10" />
        <path id="Vector_94"
            d="M144.401 279.342C144.351 289.967 143.473 300.572 141.775 311.06C139.578 324.392 141.941 352.8 141.941 352.8"
            stroke="black" stroke-width="2" stroke-miterlimit="10" />
        <path id="Vector_95" d="M141.609 358.053C141.609 358.053 144.893 385.662 149.991 396.347" stroke="black"
            stroke-width="2" stroke-miterlimit="10" />
        <path id="Vector_96" d="M165.324 168.472C165.324 168.472 210.683 188.188 216.573 241.213" stroke="black"
            stroke-width="2" stroke-miterlimit="10" />
        <path id="Vector_97" d="M56.8957 165.622C56.8957 165.622 55.1452 193.013 62.5943 210.761" stroke="black"
            stroke-width="2" stroke-miterlimit="10" />
        <path id="Vector_98" d="M79.8945 225.875C79.8945 225.875 87.7781 245.38 102.018 261.811" stroke="black"
            stroke-width="2" stroke-miterlimit="10" />
        <path id="Vector_99"
            d="M69.1621 218.43C69.1621 218.43 70.9126 233.327 80.3357 243.406C89.7589 253.484 93.0362 263.128 99.1692 269.046"
            stroke="black" stroke-width="2" stroke-miterlimit="10" />
        <path id="Vector_100" d="M70.0371 296.872C70.0371 296.872 71.5703 312.427 78.1442 317.246" stroke="black"
            stroke-width="2" stroke-miterlimit="10" />
        <path id="Vector_101" d="M52.4043 265.863C52.4043 265.863 62.7539 288.711 61.4442 298.898" stroke="black"
            stroke-width="2" stroke-miterlimit="10" />
        <path id="Vector_102" d="M143.417 152.801C143.417 152.801 142.925 180.41 116.643 208.511" stroke="black"
            stroke-width="2" stroke-miterlimit="10" />
        <path id="Vector_103" d="M128.301 99.2194C128.301 99.2194 151.082 111.49 185.031 91.5503" stroke="black"
            stroke-width="2" stroke-miterlimit="10" />
        <path id="Vector_104"
            d="M319.742 64.172C319.742 64.172 323.026 67.457 327.408 64.3894C331.791 61.3217 367.056 53.4353 390.713 66.1405"
            stroke="black" stroke-width="2" stroke-miterlimit="10" />
        <path id="Vector_105" d="M243.078 141.081C243.078 141.081 273.526 142.173 289.293 156.636" stroke="black"
            stroke-width="2" stroke-miterlimit="10" />
        <path id="Vector_106"
            d="M457.517 245.572C457.294 244.933 458.61 231.11 459.268 226.291C459.926 221.472 472.192 187.07 471.968 176.333C471.745 165.596 480.516 157.71 471.968 137.987"
            stroke="black" stroke-width="2" stroke-miterlimit="10" />
        <path id="Vector_107" d="M345.84 21.2505C345.84 21.2505 386.797 32.2046 401.695 47.9774" stroke="black"
            stroke-width="2" stroke-miterlimit="10" />
        <path id="Vector_108" d="M97.7441 66.3573C97.7441 66.3573 107.602 61.596 124.525 72.1091" stroke="black"
            stroke-width="2" stroke-miterlimit="10" />
        <path id="Vector_109" d="M156.393 42.1997C156.393 42.1997 168.882 34.8053 201.081 38.0966" stroke="black"
            stroke-width="2" stroke-miterlimit="10" />
        <path id="Vector_110"
            d="M204.307 49.4854C204.307 49.4854 210.44 54.5278 220.08 53.2113C229.72 51.8947 247.238 55.6207 247.238 55.6207"
            stroke="black" stroke-width="2" stroke-miterlimit="10" />
        <path id="Vector_111" d="M256.936 125.525C256.936 125.525 281.576 128.478 291.102 136.204" stroke="black"
            stroke-width="2" stroke-miterlimit="10" />
        <path id="Vector_112" d="M271.73 133.731C271.73 133.731 309.187 153.127 315.594 171.859" stroke="black"
            stroke-width="2" stroke-miterlimit="10" />
        <path id="Vector_113" d="M263.178 140.122C263.178 140.122 287.818 143.905 305.068 163.295" stroke="black"
            stroke-width="2" stroke-miterlimit="10" />
        <path id="Vector_114" d="M314.758 181.561C314.758 181.561 314.924 208.511 295.375 230.534" stroke="black"
            stroke-width="2" stroke-miterlimit="10" />
        <path id="Vector_115" d="M289.619 86.9046C289.619 86.9046 303.252 88.055 324.935 80.5137" stroke="black"
            stroke-width="2" stroke-miterlimit="10" />
        <path id="Vector_116"
            d="M185.639 57.8129C185.639 57.8129 221.287 55.8445 243.462 61.264C265.636 66.6835 297.343 55.6783 318.042 54.873"
            stroke="black" stroke-width="2" stroke-miterlimit="10" />
        <path id="Vector_117"
            d="M466.582 142.281C466.582 142.281 470.69 146.231 480.049 150.992C489.408 155.753 490.073 166.279 490.073 166.279"
            stroke="black" stroke-width="2" stroke-miterlimit="10" />
        <path id="Vector_118"
            d="M321.275 84.7632C327.479 85.9775 333.912 84.8399 339.962 83.3444C345.729 81.8653 351.597 80.8101 357.518 80.1873C369.39 79.0412 381.369 79.7615 393.019 82.3218C401.871 84.2475 410.453 87.2524 418.573 91.2692"
            stroke="black" stroke-width="2" stroke-miterlimit="10" />
        <path id="Vector_119" d="M163.765 149.184C163.765 149.184 155.057 166.279 145.877 171.865" stroke="black"
            stroke-width="2" stroke-miterlimit="10" />
        <path id="Vector_120" d="M118.285 219.523C121.33 223.202 125.68 225.558 130.423 226.099" stroke="black"
            stroke-width="2" stroke-miterlimit="10" />
        <path id="Vector_121" d="M130.768 219.369C130.768 219.369 143.251 225.945 148.183 224.629" stroke="black"
            stroke-width="2" stroke-miterlimit="10" />
        <path id="Vector_122" d="M150.15 258.143C150.15 258.143 147.192 266.195 145.391 267.346" stroke="black"
            stroke-width="2" stroke-miterlimit="10" />
        <path id="Vector_123" d="M66.6967 132.919C66.6967 132.919 61.4453 143.931 55.1973 149.682" stroke="black"
            stroke-width="2" stroke-miterlimit="10" />
        <path id="Vector_124" d="M95.2285 97.4747C95.2285 97.4747 112.311 86.0796 125.676 86.7379" stroke="black"
            stroke-width="2" stroke-miterlimit="10" />
        <path id="Vector_125" d="M239.57 36.3394C239.57 36.3394 244.611 42.6983 290.826 48.61" stroke="black"
            stroke-width="2" stroke-miterlimit="10" />
        <path id="Vector_126" d="M118.443 49.4852C118.443 49.4852 158.966 21.6591 227.087 28.4527" stroke="black"
            stroke-width="2" stroke-miterlimit="10" />
        <path id="Vector_127" d="M259.287 33.4956C259.287 33.4956 269.145 41.5993 302.659 41.5993" stroke="black"
            stroke-width="2" stroke-miterlimit="10" />
        <path id="Vector_128" d="M473.501 166.964C473.501 166.964 481.608 181.861 473.066 193.914" stroke="black"
            stroke-width="2" stroke-miterlimit="10" />
        <path id="Vector_129"
            d="M471.642 197.173C471.642 197.173 470.326 198.49 469.176 208.677C468.026 218.864 463.101 248.608 454.719 253.049"
            stroke="black" stroke-width="2" stroke-miterlimit="10" />
        <path id="Vector_130" d="M461.619 242.862C461.619 242.862 485.257 233.493 474.927 197.998" stroke="black"
            stroke-width="2" stroke-miterlimit="10" />
        <path id="Vector_131" d="M464.576 233.659C464.576 233.659 471.476 226.258 472.792 222.794" stroke="black"
            stroke-width="2" stroke-miterlimit="10" />
        <path id="Vector_132"
            d="M348.656 71.1826C351.065 71.8217 354.348 72.7164 366.397 72.0582C378.446 71.3999 394.654 76.8769 394.654 76.8769"
            stroke="black" stroke-width="2" stroke-miterlimit="10" />
        <path id="Vector_133" d="M197.355 194.445C197.355 194.445 210.663 218.219 205.622 238.383" stroke="black"
            stroke-width="2" stroke-miterlimit="10" />
        <path id="Vector_134" d="M174.082 173.508C174.082 173.508 200.365 200.133 199.707 220.84" stroke="black"
            stroke-width="2" stroke-miterlimit="10" />
        <path id="Vector_135" d="M130.768 106.621C130.768 106.621 145.391 117.965 171.654 110.57" stroke="black"
            stroke-width="2" stroke-miterlimit="10" />
        <path id="Vector_136" d="M103.551 100.76C103.551 100.76 101.36 110.404 116.035 119.166" stroke="black"
            stroke-width="2" stroke-miterlimit="10" />
        <path id="Vector_137" d="M406.096 77.3687C406.096 77.3687 417.103 82.6284 418.745 85.5874" stroke="black"
            stroke-width="2" stroke-miterlimit="10" />
        <path id="Vector_138" d="M434.678 103.693C434.678 103.693 443.06 105.827 447.001 109.445" stroke="black"
            stroke-width="2" stroke-miterlimit="10" />
        <path id="Vector_139"
            d="M319.357 49.4346C319.357 49.4346 326.749 52.2274 330.218 51.403C333.687 50.5786 350.259 49.1022 354.699 52.2274"
            stroke="black" stroke-width="2" stroke-miterlimit="10" />
        <path id="Vector_140" d="M191.549 16.8915C191.549 16.8915 211.922 12.4562 222.93 17.39" stroke="black"
            stroke-width="2" stroke-miterlimit="10" />
        <path id="Vector_141"
            d="M231.963 18.3741C231.963 18.3741 239.687 13.4403 279.935 25.7684C320.183 38.0965 357.473 45.1585 373.898 48.6096"
            stroke="black" stroke-width="2" stroke-miterlimit="10" />
        <path id="Vector_142" d="M132.41 251.733C132.41 251.733 147.359 251.733 151.467 241.213" stroke="black"
            stroke-width="2" stroke-miterlimit="10" />
        <path id="Vector_143" d="M118.775 261.761C118.775 261.761 127.988 265.384 134.708 260.911" stroke="black"
            stroke-width="2" stroke-miterlimit="10" />
        <path id="Vector_144"
            d="M68.1777 239.571C68.1777 239.571 69.8197 250.583 82.469 263.895C95.1184 277.207 95.2846 285.918 95.2846 285.918"
            stroke="black" stroke-width="2" stroke-miterlimit="10" />
        <path id="Vector_145"
            d="M48.6289 278.358C48.6289 278.358 53.8867 288.219 53.7398 299.723C53.5928 311.226 53.5737 318.129 55.5478 323.548"
            stroke="black" stroke-width="2" stroke-miterlimit="10" />
        <path id="Vector_146" d="M62.2637 304.484C62.2637 304.484 69.4954 319.113 74.9129 324.373" stroke="black"
            stroke-width="2" stroke-miterlimit="10" />
        <path id="Vector_147"
            d="M95.1191 118.457C95.1191 118.457 96.4351 124.701 115.16 125.359C133.885 126.017 137.009 129.302 137.009 129.302"
            stroke="black" stroke-width="2" stroke-miterlimit="10" />
        <path id="Vector_148" d="M134.217 113.855C134.217 113.855 144.732 123.55 141.775 141.131" stroke="black"
            stroke-width="2" stroke-miterlimit="10" />
        <path id="Vector_149" d="M88.2188 135.712C88.2188 135.712 101.852 160.528 125.343 173.508" stroke="black"
            stroke-width="2" stroke-miterlimit="10" />
        <path id="Vector_150" d="M171.342 101.693C171.342 101.693 189.415 104.818 222.45 97.7495" stroke="black"
            stroke-width="2" stroke-miterlimit="10" />
        <path id="Vector_151" d="M135.016 81.8108C135.016 81.8108 155.715 76.877 162.614 81.4785" stroke="black"
            stroke-width="2" stroke-miterlimit="10" />
        <path id="Vector_152" d="M230.32 96.4326C230.32 96.4326 238.536 96.2665 244.445 93.4736" stroke="black"
            stroke-width="2" stroke-miterlimit="10" />
        <path id="Vector_153" d="M266.953 54.5278C266.953 54.5278 280.427 56.3365 288.802 55.6782" stroke="black"
            stroke-width="2" stroke-miterlimit="10" />
        <path id="Vector_154"
            d="M122.061 326.999C122.061 326.999 126.66 336.694 124.852 341.136C123.044 345.577 128.634 354.774 128.634 354.774"
            stroke="black" stroke-width="2" stroke-miterlimit="10" />
        <path id="Vector_155"
            d="M57.3379 98.0752C57.3379 98.0752 69.3292 80.0016 80.8287 69.4821C92.3281 58.9626 103.003 48.6093 105.636 43.3496"
            stroke="black" stroke-width="2" stroke-miterlimit="10" />
        <path id="Vector_156"
            d="M283.385 19.9082C283.385 19.9082 291.268 20.3428 302.218 21.442C313.168 22.5412 346.478 32.3961 346.478 32.3961"
            stroke="black" stroke-width="2" stroke-miterlimit="10" />
        <path id="Vector_157" d="M405.82 65.4819C405.82 65.4819 424.002 79.7273 426.628 86.7382" stroke="black"
            stroke-width="2" stroke-miterlimit="10" />
        <path id="Vector_158" d="M424.17 153.293C424.17 153.293 441.911 143.931 450.944 129.794" stroke="black"
            stroke-width="2" stroke-miterlimit="10" />
        <path id="Vector_159" d="M457 139.821C457 139.821 464.558 147.542 464.724 154.118" stroke="black"
            stroke-width="2" stroke-miterlimit="10" />
        <path id="Vector_160"
            d="M470.493 140.971C470.493 140.971 463.101 115.005 426.795 74.5757C390.489 34.1467 362.73 37.2719 362.73 37.2719"
            stroke="black" stroke-width="2" stroke-miterlimit="10" />
        <path id="Vector_161"
            d="M194.232 117.415C194.232 117.415 211.756 119.716 241.655 108.761C271.553 97.8074 290.719 100.325 290.719 100.325"
            stroke="black" stroke-width="2" stroke-miterlimit="10" />
        <path id="Vector_162" d="M159.075 246.256C159.075 246.256 153.964 266.068 149 272.549" stroke="black"
            stroke-width="2" stroke-miterlimit="10" />
        <path id="Vector_163"
            d="M155.684 191.147C156.962 192.274 157.992 193.655 158.708 195.202C159.424 196.749 159.81 198.428 159.843 200.133"
            stroke="black" stroke-width="2" stroke-miterlimit="10" />
        <path id="Vector_164" d="M163.023 210.211C165.924 216.237 166.77 223.048 165.432 229.601" stroke="black"
            stroke-width="2" stroke-miterlimit="10" />
        <path id="Vector_165" d="M327.408 104.486C327.408 104.486 342.683 121.742 339.074 146.066" stroke="black"
            stroke-width="2" stroke-miterlimit="10" />
        <path id="Vector_166" d="M151.793 91.5059C151.793 91.5059 159.351 92.145 163.133 92.3239" stroke="black"
            stroke-width="2" stroke-miterlimit="10" />
        <path id="Vector_167" d="M217.996 130.286C217.996 130.286 238.037 130.452 248.387 126.509" stroke="black"
            stroke-width="2" stroke-miterlimit="10" />
        <path id="Vector_168" d="M142.594 145.573C142.594 145.573 153.933 147.215 160.667 144.749" stroke="black"
            stroke-width="2" stroke-miterlimit="10" />
        <path id="Vector_169" d="M115.492 108.429L128.467 123.876" stroke="black" stroke-width="2"
            stroke-miterlimit="10" />
        <path id="Vector_170" d="M90.8457 152.903C90.8457 152.903 98.5119 188.84 92.8197 202.209" stroke="black"
            stroke-width="2" stroke-miterlimit="10" />
        <path id="Vector_171"
            d="M320.182 31.8464C320.182 31.8464 335.623 30.5363 343.819 36.6141C352.016 42.6918 366.659 41.0494 366.659 41.0494"
            stroke="black" stroke-width="2" stroke-miterlimit="10" />
        <path id="Vector_172"
            d="M35.8711 172.191C35.8711 172.191 38.714 163.755 40.4708 158.387C42.2277 153.018 48.1372 111.279 54.596 104.16"
            stroke="black" stroke-width="2" stroke-miterlimit="10" />
        <path id="Vector_173" d="M89.6953 107.77C89.6953 107.77 96.595 98.7336 96.2692 89.0386" stroke="black"
            stroke-width="2" stroke-miterlimit="10" />
        <path id="Vector_174" d="M379.979 52.7769C379.979 52.7769 387.204 53.2114 391.146 57.3783" stroke="black"
            stroke-width="2" stroke-miterlimit="10" />
        <path id="Vector_175" d="M127.209 30.6457C127.209 30.6457 162.033 13.1154 190.29 11.3643" stroke="black"
            stroke-width="2" stroke-miterlimit="10" />
        <path id="Vector_176" d="M141.775 117.964C141.775 117.964 145.225 121.415 157.383 125.524" stroke="black"
            stroke-width="2" stroke-miterlimit="10" />
    </g>
    <g id="shading">
        <path id="Vector_177" d="M130.551 460.594L181.902 413.665" stroke="black" stroke-width="2"
            stroke-miterlimit="10" />
        <path id="Vector_178" d="M129.777 447.218L173.75 406.597" stroke="black" stroke-width="2"
            stroke-miterlimit="10" />
        <path id="Vector_179" d="M129.988 434.398L151.556 415.417" stroke="black" stroke-width="2"
            stroke-miterlimit="10" />
        <path id="Vector_180" d="M130.621 421.584L143.571 408.904" stroke="black" stroke-width="2"
            stroke-miterlimit="10" />
        <path id="Vector_181" d="M132.283 473.888L189.122 421.942" stroke="black" stroke-width="2"
            stroke-miterlimit="10" />
        <path id="Vector_182" d="M134.812 486.452L196.871 429.739" stroke="black" stroke-width="2"
            stroke-miterlimit="10" />
        <path id="Vector_183" d="M141.57 495.157L203.929 438.163" stroke="black" stroke-width="2"
            stroke-miterlimit="10" />
        <path id="Vector_184" d="M148.318 503.868L210.805 446.758" stroke="black" stroke-width="2"
            stroke-miterlimit="10" />
        <path id="Vector_185" d="M159.062 508.922L218.138 454.925" stroke="black" stroke-width="2"
            stroke-miterlimit="10" />
        <path id="Vector_186" d="M165.088 518.285L225.92 462.69" stroke="black" stroke-width="2"
            stroke-miterlimit="10" />
        <path id="Vector_187" d="M171.336 527.456L232.666 471.401" stroke="black" stroke-width="2"
            stroke-miterlimit="10" />
        <path id="Vector_188" d="M246.287 473.836L297.798 426.754" stroke="black" stroke-width="2"
            stroke-miterlimit="10" />
        <path id="Vector_189" d="M249.168 456.958L281.36 427.534" stroke="black" stroke-width="2"
            stroke-miterlimit="10" />
        <path id="Vector_190" d="M180.408 534.045L242.115 477.651" stroke="black" stroke-width="2"
            stroke-miterlimit="10" />
        <path id="Vector_191" d="M189.729 540.397L311.552 429.061" stroke="black" stroke-width="2"
            stroke-miterlimit="10" />
        <path id="Vector_192" d="M300.354 454.178L331.134 426.045" stroke="black" stroke-width="2"
            stroke-miterlimit="10" />
        <path id="Vector_193" d="M202.799 544.219L275.744 476.628" stroke="black" stroke-width="2"
            stroke-miterlimit="10" />
        <path id="Vector_194" d="M284.368 484.388L212.465 550.099" stroke="black" stroke-width="2"
            stroke-miterlimit="10" />
        <path id="Vector_195" d="M345.418 428.588L325.92 446.406" stroke="black" stroke-width="2"
            stroke-miterlimit="10" />
        <path id="Vector_196" d="M291.089 493.361L228.219 551.78" stroke="black" stroke-width="2"
            stroke-miterlimit="10" />
        <path id="Vector_197" d="M358.438 430.774L339.234 448.617" stroke="black" stroke-width="2"
            stroke-miterlimit="10" />
        <path id="Vector_198" d="M300.226 499.042L239.139 555.352" stroke="black" stroke-width="2"
            stroke-miterlimit="10" />
        <path id="Vector_199" d="M372.863 432.091L356.617 447.058" stroke="black" stroke-width="2"
            stroke-miterlimit="10" />
        <path id="Vector_200" d="M310.69 502.487L249.852 557.877" stroke="black" stroke-width="2"
            stroke-miterlimit="10" />
        <path id="Vector_201" d="M387.703 433.771L370.607 449.16" stroke="black" stroke-width="2"
            stroke-miterlimit="10" />
        <path id="Vector_202" d="M323.295 505.619L262.035 561.239" stroke="black" stroke-width="2"
            stroke-miterlimit="10" />
        <path id="Vector_203" d="M397.651 438.111L380.9 453.321" stroke="black" stroke-width="2"
            stroke-miterlimit="10" />
        <path id="Vector_204" d="M322.733 522.279L272.953 567.751" stroke="black" stroke-width="2"
            stroke-miterlimit="10" />
        <path id="Vector_205" d="M372.302 506.334L361.729 515.991" stroke="black" stroke-width="2"
            stroke-miterlimit="10" />
        <path id="Vector_206" d="M405.675 446.515L390.572 460.306" stroke="black" stroke-width="2"
            stroke-miterlimit="10" />
        <path id="Vector_207" d="M335.291 525.891L287.447 568.799" stroke="black" stroke-width="2"
            stroke-miterlimit="10" />
        <path id="Vector_208" d="M409.827 456.74L399.184 466.282" stroke="black" stroke-width="2"
            stroke-miterlimit="10" />
        <path id="Vector_209" d="M359.697 517.653L304.461 567.54" stroke="black" stroke-width="2"
            stroke-miterlimit="10" />
        <path id="Vector_210" d="M410.389 471.868L401.471 479.92" stroke="black" stroke-width="2"
            stroke-miterlimit="10" />
        <path id="Vector_211" d="M412.625 483.953L319.793 570.064" stroke="black" stroke-width="2"
            stroke-miterlimit="10" />
        <path id="Vector_212" d="M391.697 518.42L337.229 570.691" stroke="black" stroke-width="2"
            stroke-miterlimit="10" />
        <path id="Vector_213" d="M397.503 528.46L353.818 569.924" stroke="black" stroke-width="2"
            stroke-miterlimit="10" />
        <path id="Vector_214" d="M394.706 546.667L375.381 565.156" stroke="black" stroke-width="2"
            stroke-miterlimit="10" />
        <path id="Vector_215" d="M188.943 301.619L232.545 261.772" stroke="black" stroke-width="2"
            stroke-miterlimit="10" />
        <path id="Vector_216" d="M215.697 294.449L254.961 258.564" stroke="black" stroke-width="2"
            stroke-miterlimit="10" />
        <path id="Vector_217" d="M245.021 285.08L271.061 260.916" stroke="black" stroke-width="2"
            stroke-miterlimit="10" />
        <path id="Vector_218" d="M264.742 284.173L284.662 265.971" stroke="black" stroke-width="2"
            stroke-miterlimit="10" />
        <path id="Vector_219" d="M281.609 286.038L298.092 270.975" stroke="black" stroke-width="2"
            stroke-miterlimit="10" />
        <path id="Vector_220" d="M298.531 287.847L311.238 276.235" stroke="black" stroke-width="2"
            stroke-miterlimit="10" />
        <path id="Vector_221" d="M370.711 290.991L404.015 260.04" stroke="black" stroke-width="2"
            stroke-miterlimit="10" />
        <path id="Vector_222" d="M391.791 283.68L417.416 258.992" stroke="black" stroke-width="2"
            stroke-miterlimit="10" />
        <path id="Vector_223" d="M406.855 282.753L428.091 261.858" stroke="black" stroke-width="2"
            stroke-miterlimit="10" />
        <path id="Vector_224" d="M420.557 281.13L429.027 272.925" stroke="black" stroke-width="2"
            stroke-miterlimit="10" />
        <path id="Vector_225" d="M412.633 434.143C414.451 435.46 415.774 437.351 416.389 439.511" stroke="black"
            stroke-width="2" stroke-miterlimit="10" stroke-linecap="round" />
        <path id="Vector_226" d="M352.867 422.773C350.013 423.338 347.069 423.275 344.242 422.587" stroke="black"
            stroke-width="2" stroke-miterlimit="10" stroke-linecap="round" />
        <path id="Vector_227"
            d="M0.958984 580.149C0.958984 580.149 7.34768 578.782 14.5029 568.173C18.9302 561.596 23.6384 555.461 31.3047 552.413"
            stroke="black" stroke-width="2" stroke-miterlimit="10" stroke-linecap="round" />
        <path id="Vector_228"
            d="M37.2706 548.317L35.9928 546.707C35.5946 546.219 35.3269 545.639 35.2152 545.019C35.1034 544.4 35.1512 543.762 35.354 543.166C36.2339 540.606 36.8754 537.97 37.2706 535.292C38.0052 530.039 38.0052 516.906 40.9504 506.712C43.8955 496.519 47.6711 482.548 46.8278 473.939"
            stroke="black" stroke-width="2" stroke-miterlimit="10" stroke-linecap="round" />
        <path id="Vector_229"
            d="M210.006 549.921C211.922 549.282 215.27 551.487 217.033 552.215C227.255 556.421 237.477 560.632 247.916 564.262C255.972 567.061 264.232 569.548 271.553 573.906"
            stroke="black" stroke-width="2" stroke-miterlimit="10" stroke-linecap="round" />
        <path id="Vector_230"
            d="M279.775 579.499C288.534 583.442 297.024 587.903 305.56 592.363C307.503 593.311 309.357 594.431 311.099 595.712"
            stroke="black" stroke-width="2" stroke-miterlimit="10" stroke-linecap="round" />
        <path id="Vector_231"
            d="M264.418 601.546C265.006 601.207 265.747 601.482 266.335 601.776C270.238 603.636 273.822 606.09 277.534 608.301C286.835 613.848 296.936 617.887 306.998 621.882"
            stroke="black" stroke-width="2" stroke-miterlimit="10" stroke-linecap="round" />
        <path id="Vector_232"
            d="M58.2383 466.966C85.2334 475.712 110.835 488.285 134.262 504.302C182.368 537.215 220.016 583.773 268.614 615.958L251.716 686.048"
            stroke="black" stroke-width="2" stroke-miterlimit="10" stroke-linecap="round" />
        <path id="Vector_233"
            d="M308.518 568.249C308.518 568.249 318.535 572.026 326.406 572.026C334.276 572.026 343.98 571.208 350.554 571.387C357.128 571.566 375.521 567.278 380.453 563.175"
            stroke="black" stroke-width="2" stroke-miterlimit="10" stroke-linecap="round" />
        <path id="Vector_234" d="M325.602 579.421C325.602 579.421 333.983 582.214 342.359 579.095" stroke="black"
            stroke-width="2" stroke-miterlimit="10" stroke-linecap="round" />
        <path id="Vector_235"
            d="M342.684 644.174C342.684 644.174 345.641 632.178 346.299 626.426C346.958 620.674 350.899 603.087 352.541 597.667"
            stroke="black" stroke-width="2" stroke-miterlimit="10" stroke-linecap="round" />
        <path id="Vector_236" d="M376.695 571.701L461.133 618.534" stroke="black" stroke-width="2"
            stroke-miterlimit="10" stroke-linecap="round" />
        <path id="Vector_237" d="M460.311 642.858C460.311 642.858 468.852 631.68 471.644 630.204" stroke="black"
            stroke-width="2" stroke-miterlimit="10" stroke-linecap="round" />
        <path id="Vector_238" d="M469.668 632.996C472.45 635.533 475.849 637.296 479.526 638.109" stroke="black"
            stroke-width="2" stroke-miterlimit="10" stroke-linecap="round" />
        <path id="Vector_239"
            d="M361.416 308.1C361.416 308.1 358.95 310.892 359.608 314.018C360.266 317.143 367.823 354.523 365.932 380.573"
            stroke="black" stroke-width="2" stroke-miterlimit="10" stroke-linecap="round" />
        <path id="Vector_240"
            d="M364.039 408.611C364.192 408.611 364.275 408.79 364.314 408.937C364.742 410.716 364.642 412.582 364.026 414.305C363.585 415.917 362.798 417.413 361.72 418.689C360.629 419.97 359.087 420.78 357.414 420.952"
            stroke="black" stroke-width="2" stroke-miterlimit="10" stroke-linecap="round" />
        <path id="Vector_241" d="M310.324 407.524C310.324 407.524 321.274 405.99 331.298 411.416" stroke="black"
            stroke-width="2" stroke-miterlimit="10" stroke-linecap="round" />
        <path id="Vector_242" d="M298.06 398.104C298.06 398.104 297.728 406.707 306.436 411.525" stroke="black"
            stroke-width="2" stroke-miterlimit="10" stroke-linecap="round" />
        <path id="Vector_243" d="M303.674 384.683C303.674 384.683 310.701 376.522 319.882 379.149" stroke="black"
            stroke-width="2" stroke-miterlimit="10" stroke-linecap="round" />
        <path id="Vector_244"
            d="M369.791 368.412C369.791 368.412 373.516 370.553 374.781 377.928C375.01 379.262 375.541 380.525 376.333 381.622C377.508 383.245 378.748 385.891 379.757 387.374C381.782 390.333 391.257 399.427 383.373 408.848"
            stroke="black" stroke-width="2" stroke-miterlimit="10" stroke-linecap="round" />
        <path id="Vector_245" d="M323.219 329.382C323.219 329.382 323.551 337.109 320.51 342.036" stroke="black"
            stroke-width="2" stroke-miterlimit="10" stroke-linecap="round" />
        <path id="Vector_246" d="M267.445 401.773C267.445 401.773 291.594 381.398 304.735 373.18" stroke="black"
            stroke-width="2" stroke-miterlimit="10" stroke-linecap="round" />
        <path id="Vector_247" d="M330.035 518.068C330.035 518.068 340.442 512.7 348.984 517.084" stroke="black"
            stroke-width="2" stroke-miterlimit="10" stroke-linecap="round" />
        <path id="Vector_248" d="M317.973 487.839C317.973 487.839 335.471 496.102 359.275 489.117" stroke="black"
            stroke-width="2" stroke-miterlimit="10" stroke-linecap="round" />
        <path id="Vector_249" d="M279.66 466.595C279.66 466.595 308.773 473.293 362.207 471.401" stroke="black"
            stroke-width="2" stroke-miterlimit="10" stroke-linecap="round" />
        <path id="Vector_250" d="M367.068 471.305C367.068 471.305 381.941 470.366 382.893 469.957" stroke="black"
            stroke-width="2" stroke-miterlimit="10" stroke-linecap="round" />
        <path id="Vector_251" d="M131.753 407.856C131.753 407.856 125.511 457.322 136.352 491.008" stroke="black"
            stroke-width="2" stroke-miterlimit="10" stroke-linecap="round" />
        <path id="Vector_252"
            d="M194.84 306.286C197.395 306.982 199.849 304.368 201.593 302.93C204.113 300.925 206.79 299.126 209.598 297.549C219.653 291.676 230.859 288.033 242.179 285.585C249.475 284.013 256.873 283.08 264.316 283.853C275.719 285.042 286.886 287.011 298.354 287.336C304.2 287.545 310.054 287.454 315.891 287.062"
            stroke="black" stroke-width="2" stroke-miterlimit="10" stroke-linecap="round" />
        <path id="Vector_253"
            d="M214.234 269.972C214.234 269.972 242.491 251.24 273.048 261.593C303.604 271.947 306.556 274.081 308.856 273.423"
            stroke="black" stroke-width="2" stroke-miterlimit="10" stroke-linecap="round" />
        <path id="Vector_254"
            d="M369.133 289.298C369.133 289.298 381.68 270.65 392.771 263.824C392.771 263.824 416.945 250.902 432.769 265.741"
            stroke="black" stroke-width="2" stroke-miterlimit="10" stroke-linecap="round" />
        <path id="Vector_255"
            d="M372.092 290.187C378.954 286.539 386.396 284.108 394.088 283.004C402.699 281.879 412.033 283.771 420.389 280.984"
            stroke="black" stroke-width="2" stroke-miterlimit="10" stroke-linecap="round" />
        <path id="Vector_256"
            d="M409.221 153.459C409.221 153.459 440.429 225.76 439.752 271.135C439.752 271.135 437.126 288.557 443.368 311.89C449.609 335.224 457.825 382.887 434.168 442.706C429.243 455.169 425.639 465.842 423.026 474.942"
            stroke="black" stroke-width="2" stroke-miterlimit="10" stroke-linecap="round" />
        <path id="Vector_257" d="M248.555 337.026C248.555 337.026 273.362 342.938 290.445 330.124" stroke="black"
            stroke-width="2" stroke-miterlimit="10" stroke-linecap="round" />
        <path id="Vector_258" d="M379.156 332.425C379.156 332.425 387.532 339.161 398.047 340.145" stroke="black"
            stroke-width="2" stroke-miterlimit="10" stroke-linecap="round" />
        <path id="Vector_259" d="M269.035 298.297C269.035 298.297 277.34 296.981 293.126 306.733" stroke="black"
            stroke-width="2" stroke-miterlimit="10" stroke-linecap="round" />
        <path id="Vector_260"
            d="M298.149 314.312C292.203 309.554 285.56 305.74 278.453 303.007C276.086 302.094 273.642 301.397 271.151 300.923C267.088 300.173 262.952 299.903 258.827 300.118C253.203 300.414 247.631 301.344 242.217 302.892C232.429 305.608 223.051 310.018 214.228 314.881C211.354 316.466 207.258 318.205 203.879 317.246"
            stroke="black" stroke-width="2" stroke-miterlimit="10" stroke-linecap="round" />
        <path id="Vector_261"
            d="M241.545 318.128C253.408 321.643 266.416 319.707 278.394 317.904C280.795 317.582 283.233 317.664 285.607 318.147C287.637 318.657 289.705 319.003 291.791 319.183C293.88 319.266 296.084 318.825 297.675 317.47"
            stroke="black" stroke-width="2" stroke-miterlimit="10" stroke-linecap="round" />
        <path id="Vector_262" d="M373.732 321.081C373.732 321.081 386.548 330.725 407.03 331.383" stroke="black"
            stroke-width="2" stroke-miterlimit="10" stroke-linecap="round" />
        <path id="Vector_263" d="M370.891 305.742C370.891 305.742 389.616 290.845 407.906 294.788" stroke="black"
            stroke-width="2" stroke-miterlimit="10" stroke-linecap="round" />
        <path id="Vector_264"
            d="M373.348 318.236C373.348 318.236 377.238 315.443 381.455 316.21C385.671 316.977 402.045 319.77 415.02 313.085"
            stroke="black" stroke-width="2" stroke-miterlimit="10" stroke-linecap="round" />
        <path id="Vector_265"
            d="M417.221 303.378C413.418 301.283 409.266 299.897 404.968 299.288C404.329 299.198 403.728 299.121 403.089 299.064C390.727 297.907 382.231 302.7 377.03 307.372C374.465 309.613 372.28 312.255 370.559 315.195"
            stroke="black" stroke-width="2" stroke-miterlimit="10" stroke-linecap="round" />
        <path id="Vector_266"
            d="M272.103 305.742C272.103 313.367 265.337 319.547 256.994 319.547C248.65 319.547 241.885 313.367 241.885 305.742C241.883 304.783 241.992 303.826 242.211 302.892C247.625 301.344 253.197 300.414 258.821 300.118C262.946 299.903 267.082 300.173 271.144 300.923C271.775 302.452 272.1 304.089 272.103 305.742Z"
            fill="black" />
        <path id="Vector_267"
            d="M405.744 303.729C405.744 311.398 399.202 317.604 391.133 317.604C384.374 317.604 378.688 313.239 377.027 307.321C382.228 302.674 390.724 297.881 403.086 299.012C403.725 299.07 404.364 299.147 404.965 299.236C405.484 300.677 405.748 302.197 405.744 303.729V303.729Z"
            fill="black" />
        <path id="Vector_268"
            d="M65.439 323.164C65.439 323.164 59.5295 341.57 70.0387 361.292C80.5479 381.015 83.1799 385.175 84.496 389.336C85.5629 392.723 86.7768 397.701 89.5494 402.757C90.7823 404.986 91.5475 407.443 91.7982 409.978C92.1879 413.883 93.6764 420.044 98.9534 424.627C107.259 431.861 124.801 431.203 129.836 425.067"
            stroke="black" stroke-width="2" stroke-miterlimit="10" />
        <path id="Vector_269"
            d="M80.0039 352.856C80.0039 352.856 80.3361 369.837 88.9863 381.449C97.6364 393.061 98.7352 391.419 98.0772 396.353"
            stroke="black" stroke-width="2" stroke-miterlimit="10" />
        <path id="Vector_270" d="M98.1875 379.257C98.1875 379.257 109.137 376.522 118.669 386.818" stroke="black"
            stroke-width="2" stroke-miterlimit="10" />
        <path id="Vector_271"
            d="M116.49 368.086C116.49 368.086 116.816 373.998 120.106 376.298C123.396 378.599 126.348 382.766 124.815 386.524"
            stroke="black" stroke-width="2" stroke-miterlimit="10" />
        <path id="Vector_272" d="M398.047 515.167C398.047 515.167 406.429 507.114 410.696 504.979" stroke="black"
            stroke-width="2" stroke-miterlimit="10" />
        <path id="Vector_273" d="M101.471 403.798C101.471 403.798 103.004 413.11 113.302 412.567" stroke="black"
            stroke-width="2" stroke-miterlimit="10" />
        <path id="Vector_274"
            d="M266.283 308.394C267.546 308.394 268.57 307.37 268.57 306.106C268.57 304.843 267.546 303.818 266.283 303.818C265.02 303.818 263.996 304.843 263.996 306.106C263.996 307.37 265.02 308.394 266.283 308.394Z"
            fill="white" />
        <path id="Vector_275"
            d="M400.131 306.349C401.394 306.349 402.418 305.325 402.418 304.061C402.418 302.798 401.394 301.773 400.131 301.773C398.868 301.773 397.844 302.798 397.844 304.061C397.844 305.325 398.868 306.349 400.131 306.349Z"
            fill="white" />
        <path id="Vector_276" d="M63.5469 565.859C63.5469 565.859 159.324 630.152 207.628 674.697" stroke="black"
            stroke-width="2" stroke-miterlimit="10" />
        <path id="Vector_277" d="M268.635 615.958L282.409 641.081" stroke="black" stroke-width="2"
            stroke-miterlimit="10" stroke-linecap="round" />
        <path id="Vector_278" d="M60.1875 463.746L84.9752 461.221" stroke="black" stroke-width="2"
            stroke-miterlimit="10" stroke-linecap="round" />
        <path id="Vector_279"
            d="M370.115 454.849C375.179 456.578 379.894 459.199 384.036 462.588C384.394 462.876 384.745 463.163 385.084 463.457C387.115 465.208 389.556 467.982 392.565 467.432"
            stroke="black" stroke-width="2" stroke-miterlimit="10" stroke-linecap="round" />
        <path id="Vector_280"
            d="M307.508 456.472C307.898 456.313 308.332 456.14 308.786 455.968C313.832 454.14 323.377 451.743 326.674 450.753C327.486 450.508 328.353 450.519 329.159 450.785C333.437 452.325 337.454 454.515 341.067 457.278C341.433 457.563 341.877 457.73 342.341 457.757C342.804 457.783 343.265 457.667 343.661 457.425C344.747 456.735 346.037 455.948 346.178 455.865C349.634 453.795 353.403 453.181 357.237 453.073C358.572 453.034 359.875 453.073 361.133 453.143"
            stroke="black" stroke-width="2" stroke-miterlimit="10" stroke-linecap="round" />
        <path id="Vector_281" d="M278.344 465.151C283.202 464.776 287.996 463.813 292.622 462.281" stroke="black"
            stroke-width="2" stroke-miterlimit="10" stroke-linecap="round" />
    </g>
</svg>